League Mono-UltraLight.ufo
<glyph name="exclam" format="1">
  <advance width="600"/>
  <unicode hex="0021"/>
  <outline>
    <contour>
      <point x="321" y="-11"/>
      <point x="340" y="8"/>
      <point x="340" y="33" type="curve" smooth="yes"/>
      <point x="340" y="57"/>
      <point x="321" y="76"/>
      <point x="296" y="76" type="curve" smooth="yes"/>
      <point x="271" y="76"/>
      <point x="252" y="57"/>
      <point x="252" y="33" type="curve" smooth="yes"/>
      <point x="252" y="8"/>
      <point x="271" y="-11"/>
      <point x="296" y="-11" type="curve" smooth="yes"/>
    </contour>
    <contour>
      <point x="312" y="185" type="line"/>
      <point x="319" y="700" type="line"/>
      <point x="272" y="700" type="line"/>
      <point x="279" y="185" type="line"/>
    </contour>
  </outline>
</glyph>
<glyph name="numbersign" format="1">
  <advance width="600"/>
  <unicode hex="0023"/>
  <outline>
    <contour>
      <point x="199" y="700" type="line"/>
      <point x="118" y="0" type="line"/>
      <point x="165" y="0" type="line"/>
      <point x="246" y="700" type="line"/>
    </contour>
    <contour>
      <point x="415" y="700" type="line"/>
      <point x="334" y="0" type="line"/>
      <point x="381" y="0" type="line"/>
      <point x="462" y="700" type="line"/>
    </contour>
    <contour>
      <point x="26" y="201" type="line"/>
      <point x="518" y="201" type="line"/>
      <point x="524" y="248" type="line"/>
      <point x="32" y="248" type="line"/>
    </contour>
    <contour>
      <point x="59" y="446" type="line"/>
      <point x="551" y="446" type="line"/>
      <point x="557" y="493" type="line"/>
      <point x="65" y="493" type="line"/>
    </contour>
  </outline>
</glyph>
<glyph name="dollar" format="1">
  <advance width="600"/>
  <unicode hex="0024"/>
  <outline>
    <contour>
      <point x="278" y="-130" type="line"/>
      <point x="324" y="-130" type="line"/>
      <point x="324" y="800" type="line"/>
      <point x="278" y="800" type="line"/>
    </contour>
    <contour>
      <point x="206" y="428"/>
      <point x="145" y="475"/>
      <point x="145" y="544" type="curve" smooth="yes"/>
      <point x="145" y="623"/>
      <point x="215" y="658"/>
      <point x="307" y="658" type="curve" smooth="yes"/>
      <point x="385" y="658"/>
      <point x="440" y="627"/>
      <point x="469" y="566" type="curve"/>
      <point x="518" y="591" type="line"/>
      <point x="479" y="669"/>
      <point x="402" y="706"/>
      <point x="310" y="706" type="curve" smooth="yes"/>
      <point x="186" y="706"/>
      <point x="93" y="655"/>
      <point x="93" y="544" type="curve" smooth="yes"/>
      <point x="93" y="442"/>
      <point x="184" y="380"/>
      <point x="293" y="339" type="curve" smooth="yes"/>
      <point x="411" y="294"/>
      <point x="479" y="256"/>
      <point x="479" y="180" type="curve" smooth="yes"/>
      <point x="479" y="87"/>
      <point x="394" y="37"/>
      <point x="295" y="37" type="curve" smooth="yes"/>
      <point x="205" y="37"/>
      <point x="146" y="69"/>
      <point x="113" y="132" type="curve"/>
      <point x="62" y="106" type="line"/>
      <point x="106" y="25"/>
      <point x="186" y="-11"/>
      <point x="295" y="-11" type="curve" smooth="yes"/>
      <point x="426" y="-11"/>
      <point x="530" y="54"/>
      <point x="530" y="182" type="curve" smooth="yes"/>
      <point x="530" y="289"/>
      <point x="439" y="336"/>
      <point x="293" y="394" type="curve" smooth="yes"/>
    </contour>
  </outline>
</glyph>
<glyph name="percent" format="1">
  <advance width="600"/>
  <unicode hex="0025"/>
  <outline>
    <contour>
      <point x="482" y="700" type="line"/>
      <point x="66" y="0" type="line"/>
      <point x="124" y="0" type="line"/>
      <point x="540" y="700" type="line"/>
    </contour>
    <contour>
      <point x="221" y="426"/>
      <point x="275" y="460"/>
      <point x="275" y="557" type="curve" smooth="yes"/>
      <point x="275" y="653"/>
      <point x="221" y="687"/>
      <point x="165" y="687" type="curve" smooth="yes"/>
      <point x="109" y="687"/>
      <point x="55" y="653"/>
      <point x="55" y="557" type="curve" smooth="yes"/>
      <point x="55" y="460"/>
      <point x="109" y="426"/>
      <point x="165" y="426" type="curve" smooth="yes"/>
    </contour>
    <contour>
      <point x="129" y="467"/>
      <point x="101" y="489"/>
      <point x="101" y="557" type="curve" smooth="yes"/>
      <point x="101" y="624"/>
      <point x="129" y="646"/>
      <point x="165" y="646" type="curve" smooth="yes"/>
      <point x="201" y="646"/>
      <point x="229" y="624"/>
      <point x="229" y="557" type="curve" smooth="yes"/>
      <point x="229" y="489"/>
      <point x="201" y="467"/>
      <point x="165" y="467" type="curve" smooth="yes"/>
    </contour>
    <contour>
      <point x="503" y="6"/>
      <point x="557" y="40"/>
      <point x="557" y="137" type="curve" smooth="yes"/>
      <point x="557" y="233"/>
      <point x="503" y="267"/>
      <point x="447" y="267" type="curve" smooth="yes"/>
      <point x="391" y="267"/>
      <point x="337" y="233"/>
      <point x="337" y="137" type="curve" smooth="yes"/>
      <point x="337" y="40"/>
      <point x="391" y="6"/>
      <point x="447" y="6" type="curve" smooth="yes"/>
    </contour>
    <contour>
      <point x="411" y="47"/>
      <point x="383" y="69"/>
      <point x="383" y="137" type="curve" smooth="yes"/>
      <point x="383" y="204"/>
      <point x="411" y="226"/>
      <point x="447" y="226" type="curve" smooth="yes"/>
      <point x="483" y="226"/>
      <point x="511" y="204"/>
      <point x="511" y="137" type="curve" smooth="yes"/>
      <point x="511" y="69"/>
      <point x="483" y="47"/>
      <point x="447" y="47" type="curve" smooth="yes"/>
    </contour>
  </outline>
</glyph>
<glyph name="ampersand" format="1">
  <advance width="600"/>
  <unicode hex="0026"/>
  <outline>
    <contour>
      <point x="367" y="-7"/>
      <point x="427" y="39"/>
      <point x="442" y="53" type="curve"/>
      <point x="474" y="0" type="line"/>
      <point x="527" y="0" type="line"/>
      <point x="472" y="85" type="line"/>
      <point x="502" y="126"/>
      <point x="523" y="178"/>
      <point x="523" y="290" type="curve" smooth="yes"/>
      <point x="523" y="293" type="line"/>
      <point x="475" y="293" type="line"/>
      <point x="475" y="290" type="line" smooth="yes"/>
      <point x="475" y="209"/>
      <point x="467" y="158"/>
      <point x="446" y="126" type="curve"/>
      <point x="283" y="383" type="line"/>
      <point x="329" y="421"/>
      <point x="400" y="495"/>
      <point x="404" y="576" type="curve" smooth="yes"/>
      <point x="407" y="655"/>
      <point x="363" y="706"/>
      <point x="274" y="706" type="curve" smooth="yes"/>
      <point x="185" y="706"/>
      <point x="131" y="654"/>
      <point x="137" y="575" type="curve" smooth="yes"/>
      <point x="142" y="513"/>
      <point x="178" y="458"/>
      <point x="222" y="394" type="curve"/>
      <point x="168" y="354"/>
      <point x="74" y="277"/>
      <point x="66" y="181" type="curve" smooth="yes"/>
      <point x="57" y="72"/>
      <point x="123" y="-9"/>
      <point x="268" y="-8" type="curve" smooth="yes"/>
    </contour>
    <contour>
      <point x="152" y="38"/>
      <point x="110" y="105"/>
      <point x="117" y="180" type="curve" smooth="yes"/>
      <point x="124" y="257"/>
      <point x="202" y="320"/>
      <point x="246" y="356" type="curve"/>
      <point x="416" y="92" type="line"/>
      <point x="406" y="83"/>
      <point x="364" y="41"/>
      <point x="265" y="39" type="curve" smooth="yes"/>
    </contour>
    <contour>
      <point x="237" y="452"/>
      <point x="183" y="525"/>
      <point x="183" y="585" type="curve" smooth="yes"/>
      <point x="183" y="644"/>
      <point x="233" y="665"/>
      <point x="274" y="665" type="curve" smooth="yes"/>
      <point x="315" y="665"/>
      <point x="359" y="646"/>
      <point x="359" y="584" type="curve" smooth="yes"/>
      <point x="359" y="513"/>
      <point x="291" y="449"/>
      <point x="258" y="420" type="curve"/>
    </contour>
  </outline>
</glyph>
<glyph name="quotesingle" format="1">
  <advance width="600"/>
  <unicode hex="0027"/>
  <outline>
    <contour>
      <point x="284" y="544" type="line"/>
      <point x="320" y="544" type="line"/>
      <point x="333" y="757" type="line"/>
      <point x="272" y="757" type="line"/>
    </contour>
  </outline>
</glyph>
<glyph name="parenleft" format="1">
  <advance width="600"/>
  <unicode hex="0028"/>
  <outline>
    <contour>
      <point x="452" y="-194" type="line"/>
      <point x="439" y="-175"/>
      <point x="297" y="17"/>
      <point x="297" y="294" type="curve" smooth="yes"/>
      <point x="297" y="573"/>
      <point x="443" y="767"/>
      <point x="453" y="780" type="curve"/>
      <point x="411" y="802" type="line"/>
      <point x="377" y="757"/>
      <point x="246" y="576"/>
      <point x="246" y="294" type="curve" smooth="yes"/>
      <point x="246" y="12"/>
      <point x="376" y="-170"/>
      <point x="409" y="-216" type="curve"/>
    </contour>
  </outline>
</glyph>
<glyph name="asterisk" format="1">
  <advance width="600"/>
  <unicode hex="002A"/>
  <outline>
    <contour>
      <point x="401" y="547" type="line"/>
      <point x="313" y="663" type="line"/>
      <point x="291" y="646" type="line"/>
      <point x="374" y="528" type="line"/>
    </contour>
    <contour>
      <point x="307" y="646" type="line"/>
      <point x="285" y="663" type="line"/>
      <point x="197" y="547" type="line"/>
      <point x="224" y="528" type="line"/>
    </contour>
    <contour>
      <point x="299" y="671" type="line"/>
      <point x="169" y="720" type="line"/>
      <point x="158" y="688" type="line"/>
      <point x="291" y="646" type="line"/>
    </contour>
    <contour>
      <point x="309" y="640"/>
      <point x="316" y="648"/>
      <point x="316" y="658" type="curve" smooth="yes"/>
      <point x="316" y="667"/>
      <point x="309" y="675"/>
      <point x="299" y="675" type="curve" smooth="yes"/>
      <point x="289" y="675"/>
      <point x="281" y="667"/>
      <point x="281" y="658" type="curve" smooth="yes"/>
      <point x="281" y="648"/>
      <point x="289" y="640"/>
      <point x="299" y="640" type="curve" smooth="yes"/>
    </contour>
    <contour>
      <point x="313" y="663" type="line"/>
      <point x="316" y="800" type="line"/>
      <point x="283" y="800" type="line"/>
      <point x="285" y="663" type="line"/>
    </contour>
    <contour>
      <point x="439" y="688" type="line"/>
      <point x="428" y="720" type="line"/>
      <point x="299" y="671" type="line"/>
      <point x="307" y="646" type="line"/>
    </contour>
  </outline>
</glyph>
<glyph name="plus" format="1">
  <advance width="600"/>
  <unicode hex="002B"/>
  <outline>
    <contour>
      <point x="116" y="281" type="line"/>
      <point x="489" y="281" type="line"/>
      <point x="489" y="327" type="line"/>
      <point x="116" y="327" type="line"/>
    </contour>
    <contour>
      <point x="326" y="117" type="line"/>
      <point x="326" y="490" type="line"/>
      <point x="280" y="490" type="line"/>
      <point x="280" y="117" type="line"/>
    </contour>
  </outline>
</glyph>
<glyph name="comma" format="1">
  <advance width="600"/>
  <unicode hex="002C"/>
  <outline>
    <contour>
      <point x="296" y="-9"/>
      <point x="323" y="17"/>
      <point x="323" y="51" type="curve" smooth="yes"/>
      <point x="323" y="83"/>
      <point x="296" y="110"/>
      <point x="264" y="110" type="curve" smooth="yes"/>
      <point x="231" y="110"/>
      <point x="204" y="83"/>
      <point x="204" y="51" type="curve" smooth="yes"/>
      <point x="204" y="17"/>
      <point x="231" y="-9"/>
      <point x="264" y="-9" type="curve" smooth="yes"/>
    </contour>
    <contour>
      <point x="221" y="-98" type="line"/>
      <point x="261" y="-116" type="line"/>
      <point x="319" y="28" type="line"/>
      <point x="259" y="20" type="line"/>
    </contour>
  </outline>
</glyph>
<glyph name="hyphen" format="1">
  <advance width="600"/>
  <unicode hex="002D"/>
  <outline>
    <contour>
      <point x="155" y="281" type="line"/>
      <point x="439" y="281" type="line"/>
      <point x="439" y="327" type="line"/>
      <point x="155" y="327" type="line"/>
    </contour>
  </outline>
</glyph>
<glyph name="period" format="1">
  <advance width="600"/>
  <unicode hex="002E"/>
  <outline>
    <contour>
      <point x="330" y="-12"/>
      <point x="357" y="15"/>
      <point x="357" y="49" type="curve" smooth="yes"/>
      <point x="357" y="83"/>
      <point x="330" y="110"/>
      <point x="296" y="110" type="curve" smooth="yes"/>
      <point x="262" y="110"/>
      <point x="235" y="83"/>
      <point x="235" y="49" type="curve" smooth="yes"/>
      <point x="235" y="15"/>
      <point x="262" y="-12"/>
      <point x="296" y="-12" type="curve" smooth="yes"/>
    </contour>
  </outline>
</glyph>
<glyph name="slash" format="1">
  <advance width="600"/>
  <unicode hex="002F"/>
  <outline>
    <contour>
      <point x="407" y="800" type="line"/>
      <point x="158" y="-142" type="line"/>
      <point x="203" y="-142" type="line"/>
      <point x="452" y="800" type="line"/>
    </contour>
  </outline>
</glyph>
<glyph name="zero" format="1">
  <advance width="600"/>
  <unicode hex="0030"/>
  <outline>
    <contour>
      <point x="397" y="-11"/>
      <point x="505" y="67"/>
      <point x="505" y="348" type="curve" smooth="yes"/>
      <point x="505" y="628"/>
      <point x="397" y="706"/>
      <point x="302" y="706" type="curve" smooth="yes"/>
      <point x="199" y="706"/>
      <point x="98" y="628"/>
      <point x="98" y="348" type="curve" smooth="yes"/>
      <point x="98" y="67"/>
      <point x="199" y="-11"/>
      <point x="302" y="-11" type="curve" smooth="yes"/>
    </contour>
    <contour>
      <point x="218" y="37"/>
      <point x="150" y="125"/>
      <point x="150" y="348" type="curve" smooth="yes"/>
      <point x="150" y="571"/>
      <point x="218" y="658"/>
      <point x="302" y="658" type="curve" smooth="yes"/>
      <point x="383" y="658"/>
      <point x="453" y="571"/>
      <point x="453" y="348" type="curve" smooth="yes"/>
      <point x="453" y="125"/>
      <point x="383" y="37"/>
      <point x="302" y="37" type="curve" smooth="yes"/>
    </contour>
    <contour>
      <point x="324" y="278"/>
      <point x="348" y="292"/>
      <point x="348" y="348" type="curve" smooth="yes"/>
      <point x="348" y="403"/>
      <point x="324" y="417"/>
      <point x="302" y="417" type="curve" smooth="yes"/>
      <point x="279" y="417"/>
      <point x="255" y="403"/>
      <point x="255" y="348" type="curve" smooth="yes"/>
      <point x="255" y="292"/>
      <point x="279" y="278"/>
      <point x="302" y="278" type="curve" smooth="yes"/>
    </contour>
  </outline>
</glyph>
<glyph name="one" format="1">
  <advance width="600"/>
  <unicode hex="0031"/>
  <outline>
    <contour>
      <point x="137" y="568" type="line"/>
      <point x="299" y="664" type="line"/>
      <point x="299" y="700" type="line"/>
      <point x="122" y="596" type="line"/>
    </contour>
    <contour>
      <point x="332" y="16" type="line"/>
      <point x="332" y="700" type="line"/>
      <point x="299" y="700" type="line"/>
      <point x="299" y="646" type="line"/>
      <point x="299" y="11" type="line"/>
    </contour>
    <contour>
      <point x="141" y="0" type="line"/>
      <point x="481" y="0" type="line"/>
      <point x="481" y="32" type="line"/>
      <point x="141" y="32" type="line"/>
    </contour>
  </outline>
</glyph>
<glyph name="two" format="1">
  <advance width="600"/>
  <unicode hex="0032"/>
  <outline>
    <contour>
      <point x="173" y="47" type="line"/>
      <point x="166" y="37"/>
      <point x="245" y="105"/>
      <point x="293" y="152" type="curve" smooth="yes"/>
      <point x="415" y="269"/>
      <point x="501" y="389"/>
      <point x="501" y="506" type="curve" smooth="yes"/>
      <point x="501" y="613"/>
      <point x="435" y="706"/>
      <point x="305" y="706" type="curve" smooth="yes"/>
      <point x="222" y="706"/>
      <point x="140" y="668"/>
      <point x="98" y="605" type="curve"/>
      <point x="149" y="578" type="line"/>
      <point x="176" y="626"/>
      <point x="238" y="658"/>
      <point x="303" y="658" type="curve" smooth="yes"/>
      <point x="398" y="658"/>
      <point x="446" y="590"/>
      <point x="446" y="506" type="curve" smooth="yes"/>
      <point x="446" y="409"/>
      <point x="374" y="297"/>
      <point x="257" y="186" type="curve" smooth="yes"/>
      <point x="215" y="145"/>
      <point x="155" y="94"/>
      <point x="95" y="47" type="curve"/>
    </contour>
    <contour>
      <point x="500" y="0" type="line"/>
      <point x="500" y="47" type="line"/>
      <point x="95" y="47" type="line"/>
      <point x="95" y="0" type="line"/>
    </contour>
  </outline>
</glyph>
<glyph name="three" format="1">
  <advance width="600"/>
  <unicode hex="0033"/>
  <outline>
    <contour>
      <point x="439" y="-11"/>
      <point x="520" y="63"/>
      <point x="520" y="195" type="curve" smooth="yes"/>
      <point x="520" y="296"/>
      <point x="452" y="363"/>
      <point x="333" y="368" type="curve" smooth="yes"/>
      <point x="329" y="368"/>
      <point x="285" y="331"/>
      <point x="291" y="331" type="curve" smooth="yes"/>
      <point x="415" y="331"/>
      <point x="463" y="277"/>
      <point x="463" y="195" type="curve" smooth="yes"/>
      <point x="463" y="86"/>
      <point x="394" y="37"/>
      <point x="308" y="37" type="curve" smooth="yes"/>
      <point x="220" y="37"/>
      <point x="161" y="73"/>
      <point x="138" y="117" type="curve"/>
      <point x="88" y="90" type="line"/>
      <point x="127" y="27"/>
      <point x="206" y="-11"/>
      <point x="308" y="-11" type="curve" smooth="yes"/>
    </contour>
    <contour>
      <point x="394" y="331" type="line"/>
      <point x="394" y="377" type="line"/>
      <point x="274" y="377" type="line"/>
      <point x="274" y="331" type="line"/>
    </contour>
    <contour>
      <point x="461" y="356"/>
      <point x="505" y="434"/>
      <point x="505" y="520" type="curve" smooth="yes"/>
      <point x="505" y="653"/>
      <point x="415" y="706"/>
      <point x="303" y="706" type="curve" smooth="yes"/>
      <point x="201" y="706"/>
      <point x="129" y="660"/>
      <point x="101" y="603" type="curve"/>
      <point x="151" y="577" type="line"/>
      <point x="170" y="623"/>
      <point x="233" y="658"/>
      <point x="303" y="658" type="curve" smooth="yes"/>
      <point x="381" y="658"/>
      <point x="448" y="623"/>
      <point x="448" y="520" type="curve" smooth="yes"/>
      <point x="448" y="438"/>
      <point x="408" y="377"/>
      <point x="291" y="377" type="curve" smooth="yes"/>
      <point x="285" y="377"/>
      <point x="323" y="337"/>
      <point x="327" y="337" type="curve" smooth="yes"/>
    </contour>
  </outline>
</glyph>
<glyph name="four" format="1">
  <advance width="600"/>
  <unicode hex="0034"/>
  <outline>
    <contour>
      <point x="145" y="216" type="line"/>
      <point x="308" y="672" type="line"/>
      <point x="265" y="700" type="line"/>
      <point x="92" y="216" type="line"/>
    </contour>
    <contour>
      <point x="375" y="653" type="line"/>
      <point x="375" y="700" type="line"/>
      <point x="265" y="700" type="line"/>
      <point x="265" y="653" type="line"/>
    </contour>
    <contour>
      <point x="391" y="0" type="line"/>
      <point x="391" y="700" type="line"/>
      <point x="340" y="700" type="line"/>
      <point x="340" y="0" type="line"/>
    </contour>
    <contour>
      <point x="517" y="169" type="line"/>
      <point x="517" y="216" type="line"/>
      <point x="92" y="216" type="line"/>
      <point x="92" y="169" type="line"/>
    </contour>
  </outline>
</glyph>
<glyph name="five" format="1">
  <advance width="600"/>
  <unicode hex="0035"/>
  <outline>
    <contour>
      <point x="424" y="-11"/>
      <point x="503" y="78"/>
      <point x="503" y="231" type="curve" smooth="yes"/>
      <point x="503" y="385"/>
      <point x="433" y="463"/>
      <point x="308" y="463" type="curve" smooth="yes"/>
      <point x="217" y="463"/>
      <point x="149" y="415"/>
      <point x="129" y="337" type="curve"/>
      <point x="150" y="309" type="line"/>
      <point x="187" y="383"/>
      <point x="240" y="415"/>
      <point x="308" y="415" type="curve" smooth="yes"/>
      <point x="406" y="415"/>
      <point x="447" y="347"/>
      <point x="447" y="231" type="curve" smooth="yes"/>
      <point x="447" y="105"/>
      <point x="392" y="37"/>
      <point x="286" y="37" type="curve" smooth="yes"/>
      <point x="217" y="37"/>
      <point x="158" y="61"/>
      <point x="126" y="111" type="curve"/>
      <point x="77" y="84" type="line"/>
      <point x="121" y="20"/>
      <point x="195" y="-11"/>
      <point x="283" y="-11" type="curve" smooth="yes"/>
    </contour>
    <contour>
      <point x="185" y="673" type="line"/>
      <point x="139" y="700" type="line"/>
      <point x="104" y="329" type="line"/>
      <point x="150" y="309" type="line"/>
    </contour>
    <contour>
      <point x="479" y="653" type="line"/>
      <point x="479" y="700" type="line"/>
      <point x="139" y="700" type="line"/>
      <point x="139" y="653" type="line"/>
    </contour>
  </outline>
</glyph>
<glyph name="six" format="1">
  <advance width="600"/>
  <unicode hex="0036"/>
  <outline>
    <contour>
      <point x="463" y="688" type="line"/>
      <point x="439" y="700"/>
      <point x="396" y="709"/>
      <point x="347" y="706" type="curve" smooth="yes"/>
      <point x="211" y="698"/>
      <point x="84" y="590"/>
      <point x="84" y="328" type="curve" smooth="yes"/>
      <point x="84" y="82"/>
      <point x="165" y="-11"/>
      <point x="305" y="-11" type="curve"/>
      <point x="305" y="37" type="line"/>
      <point x="195" y="37"/>
      <point x="140" y="117"/>
      <point x="140" y="328" type="curve" smooth="yes"/>
      <point x="140" y="560"/>
      <point x="248" y="652"/>
      <point x="348" y="657" type="curve" smooth="yes"/>
      <point x="384" y="659"/>
      <point x="417" y="654"/>
      <point x="439" y="641" type="curve"/>
    </contour>
    <contour>
      <point x="305" y="-11" type="line"/>
      <point x="442" y="-11"/>
      <point x="513" y="80"/>
      <point x="513" y="231" type="curve" smooth="yes"/>
      <point x="513" y="384"/>
      <point x="450" y="463"/>
      <point x="320" y="463" type="curve" smooth="yes"/>
      <point x="229" y="463"/>
      <point x="145" y="424"/>
      <point x="111" y="325" type="curve"/>
      <point x="138" y="296" type="line"/>
      <point x="168" y="386"/>
      <point x="246" y="416"/>
      <point x="320" y="416" type="curve" smooth="yes"/>
      <point x="414" y="416"/>
      <point x="457" y="355"/>
      <point x="457" y="231" type="curve" smooth="yes"/>
      <point x="457" y="109"/>
      <point x="406" y="37"/>
      <point x="305" y="37" type="curve"/>
    </contour>
  </outline>
</glyph>
<glyph name="seven" format="1">
  <advance width="600"/>
  <unicode hex="0037"/>
  <outline>
    <contour>
      <point x="462" y="653" type="line"/>
      <point x="177" y="0" type="line"/>
      <point x="232" y="0" type="line"/>
      <point x="515" y="653" type="line"/>
    </contour>
    <contour>
      <point x="515" y="700" type="line"/>
      <point x="108" y="700" type="line"/>
      <point x="108" y="653" type="line"/>
      <point x="515" y="653" type="line"/>
    </contour>
  </outline>
</glyph>
<glyph name="eight" format="1">
  <advance width="600"/>
  <unicode hex="0038"/>
  <outline>
    <contour>
      <point x="428" y="-11"/>
      <point x="523" y="54"/>
      <point x="523" y="197" type="curve" smooth="yes"/>
      <point x="523" y="332"/>
      <point x="414" y="392"/>
      <point x="303" y="392" type="curve" smooth="yes"/>
      <point x="187" y="392"/>
      <point x="82" y="332"/>
      <point x="82" y="197" type="curve" smooth="yes"/>
      <point x="82" y="54"/>
      <point x="177" y="-11"/>
      <point x="303" y="-11" type="curve" smooth="yes"/>
    </contour>
    <contour>
      <point x="202" y="37"/>
      <point x="138" y="91"/>
      <point x="138" y="196" type="curve" smooth="yes"/>
      <point x="138" y="299"/>
      <point x="202" y="345"/>
      <point x="303" y="345" type="curve" smooth="yes"/>
      <point x="403" y="345"/>
      <point x="467" y="299"/>
      <point x="467" y="196" type="curve" smooth="yes"/>
      <point x="467" y="91"/>
      <point x="403" y="37"/>
      <point x="303" y="37" type="curve" smooth="yes"/>
    </contour>
    <contour>
      <point x="409" y="345"/>
      <point x="493" y="402"/>
      <point x="493" y="525" type="curve" smooth="yes"/>
      <point x="493" y="647"/>
      <point x="405" y="707"/>
      <point x="303" y="707" type="curve" smooth="yes"/>
      <point x="200" y="707"/>
      <point x="112" y="647"/>
      <point x="112" y="525" type="curve" smooth="yes"/>
      <point x="112" y="402"/>
      <point x="196" y="345"/>
      <point x="303" y="345" type="curve" smooth="yes"/>
    </contour>
    <contour>
      <point x="205" y="392"/>
      <point x="168" y="444"/>
      <point x="168" y="525" type="curve" smooth="yes"/>
      <point x="168" y="620"/>
      <point x="223" y="659"/>
      <point x="303" y="659" type="curve" smooth="yes"/>
      <point x="382" y="659"/>
      <point x="437" y="620"/>
      <point x="437" y="525" type="curve" smooth="yes"/>
      <point x="437" y="444"/>
      <point x="405" y="392"/>
      <point x="303" y="392" type="curve" smooth="yes"/>
    </contour>
  </outline>
</glyph>
<glyph name="nine" format="1">
  <advance width="600"/>
  <unicode hex="0039"/>
  <outline>
    <contour>
      <point x="292" y="707" type="line"/>
      <point x="169" y="707"/>
      <point x="84" y="616"/>
      <point x="84" y="465" type="curve" smooth="yes"/>
      <point x="84" y="312"/>
      <point x="157" y="233"/>
      <point x="280" y="233" type="curve" smooth="yes"/>
      <point x="371" y="233"/>
      <point x="427" y="273"/>
      <point x="475" y="363" type="curve"/>
      <point x="459" y="414" type="line"/>
      <point x="429" y="338"/>
      <point x="369" y="280"/>
      <point x="277" y="280" type="curve" smooth="yes"/>
      <point x="185" y="280"/>
      <point x="140" y="341"/>
      <point x="140" y="465" type="curve" smooth="yes"/>
      <point x="140" y="587"/>
      <point x="195" y="659"/>
      <point x="292" y="659" type="curve"/>
    </contour>
    <contour>
      <point x="140" y="0" type="line"/>
      <point x="152" y="0"/>
      <point x="230" y="0"/>
      <point x="307" y="28" type="curve" smooth="yes"/>
      <point x="428" y="72"/>
      <point x="513" y="178"/>
      <point x="513" y="405" type="curve" smooth="yes"/>
      <point x="513" y="633"/>
      <point x="425" y="707"/>
      <point x="292" y="707" type="curve"/>
      <point x="292" y="659" type="line"/>
      <point x="399" y="659"/>
      <point x="458" y="604"/>
      <point x="458" y="405" type="curve" smooth="yes"/>
      <point x="458" y="207"/>
      <point x="396" y="115"/>
      <point x="297" y="75" type="curve" smooth="yes"/>
      <point x="234" y="50"/>
      <point x="150" y="47"/>
      <point x="140" y="47" type="curve"/>
    </contour>
  </outline>
</glyph>
<glyph name="less" format="1">
  <advance width="600"/>
  <unicode hex="003C"/>
  <outline>
    <contour>
      <point x="137" y="261" type="line"/>
      <point x="471" y="534" type="line"/>
      <point x="448" y="562" type="line"/>
      <point x="122" y="313" type="line"/>
    </contour>
    <contour>
      <point x="122" y="264" type="line"/>
      <point x="130" y="264" type="line"/>
      <point x="130" y="313" type="line"/>
      <point x="122" y="313" type="line"/>
    </contour>
    <contour>
      <point x="448" y="15" type="line"/>
      <point x="471" y="43" type="line"/>
      <point x="137" y="316" type="line"/>
      <point x="122" y="264" type="line"/>
    </contour>
  </outline>
</glyph>
<glyph name="equal" format="1">
  <advance width="600"/>
  <unicode hex="003D"/>
  <outline>
    <contour>
      <point x="112" y="189" type="line"/>
      <point x="485" y="189" type="line"/>
      <point x="485" y="235" type="line"/>
      <point x="112" y="235" type="line"/>
    </contour>
    <contour>
      <point x="112" y="373" type="line"/>
      <point x="485" y="373" type="line"/>
      <point x="485" y="419" type="line"/>
      <point x="112" y="419" type="line"/>
    </contour>
  </outline>
</glyph>
<glyph name="question" format="1">
  <advance width="600"/>
  <unicode hex="003F"/>
  <outline>
    <contour>
      <point x="310" y="191" type="line"/>
      <point x="310" y="233" type="line"/>
      <point x="310" y="337"/>
      <point x="489" y="392"/>
      <point x="498" y="520" type="curve" smooth="yes"/>
      <point x="506" y="638"/>
      <point x="427" y="706"/>
      <point x="303" y="706" type="curve" smooth="yes"/>
      <point x="207" y="706"/>
      <point x="128" y="658"/>
      <point x="100" y="604" type="curve"/>
      <point x="149" y="578" type="line"/>
      <point x="172" y="622"/>
      <point x="230" y="659"/>
      <point x="303" y="659" type="curve" smooth="yes"/>
      <point x="372" y="659"/>
      <point x="451" y="628"/>
      <point x="443" y="520" type="curve" smooth="yes"/>
      <point x="435" y="400"/>
      <point x="260" y="370"/>
      <point x="260" y="225" type="curve"/>
      <point x="260" y="191" type="line"/>
    </contour>
    <contour>
      <point x="315" y="-11"/>
      <point x="337" y="11"/>
      <point x="337" y="40" type="curve" smooth="yes"/>
      <point x="337" y="68"/>
      <point x="315" y="90"/>
      <point x="286" y="90" type="curve" smooth="yes"/>
      <point x="257" y="90"/>
      <point x="235" y="68"/>
      <point x="235" y="40" type="curve" smooth="yes"/>
      <point x="235" y="11"/>
      <point x="257" y="-11"/>
      <point x="286" y="-11" type="curve" smooth="yes"/>
    </contour>
  </outline>
</glyph>
<glyph name="at" format="1">
  <advance width="600"/>
  <unicode hex="0040"/>
  <outline>
    <contour>
      <point x="335" y="-11"/>
      <point x="386" y="2"/>
      <point x="402" y="9" type="curve"/>
      <point x="386" y="41" type="line"/>
      <point x="371" y="35"/>
      <point x="326" y="21"/>
      <point x="263" y="23" type="curve" smooth="yes"/>
      <point x="112" y="28"/>
      <point x="36" y="176"/>
      <point x="56" y="348" type="curve" smooth="yes"/>
      <point x="82" y="573"/>
      <point x="183" y="674"/>
      <point x="346" y="673" type="curve" smooth="yes"/>
      <point x="529" y="672"/>
      <point x="568" y="543"/>
      <point x="553" y="361" type="curve" smooth="yes"/>
      <point x="543" y="236"/>
      <point x="507" y="152"/>
      <point x="444" y="165" type="curve" smooth="yes"/>
      <point x="394" y="175"/>
      <point x="398" y="282"/>
      <point x="405" y="343" type="curve" smooth="yes"/>
      <point x="409" y="379"/>
      <point x="426" y="532"/>
      <point x="426" y="532" type="curve" smooth="yes"/>
      <point x="426" y="532"/>
      <point x="394" y="549"/>
      <point x="336" y="551" type="curve" smooth="yes"/>
      <point x="241" y="554"/>
      <point x="169" y="491"/>
      <point x="156" y="347" type="curve" smooth="yes"/>
      <point x="143" y="201"/>
      <point x="191" y="145"/>
      <point x="268" y="145" type="curve" smooth="yes"/>
      <point x="328" y="145"/>
      <point x="366" y="191"/>
      <point x="375" y="220" type="curve"/>
      <point x="378" y="191"/>
      <point x="389" y="147"/>
      <point x="437" y="136" type="curve" smooth="yes"/>
      <point x="517" y="117"/>
      <point x="570" y="194"/>
      <point x="584" y="351" type="curve" smooth="yes"/>
      <point x="606" y="604"/>
      <point x="521" y="704"/>
      <point x="353" y="706" type="curve" smooth="yes"/>
      <point x="198" y="708"/>
      <point x="45" y="626"/>
      <point x="21" y="348" type="curve" smooth="yes"/>
      <point x="-1" y="90"/>
      <point x="142" y="-5"/>
      <point x="263" y="-9" type="curve" smooth="yes"/>
    </contour>
    <contour>
      <point x="229" y="177"/>
      <point x="177" y="193"/>
      <point x="189" y="344" type="curve" smooth="yes"/>
      <point x="201" y="490"/>
      <point x="277" y="522"/>
      <point x="332" y="520" type="curve" smooth="yes"/>
      <point x="379" y="518"/>
      <point x="393" y="512"/>
      <point x="393" y="512" type="curve"/>
      <point x="393" y="512"/>
      <point x="373" y="357"/>
      <point x="371" y="338" type="curve" smooth="yes"/>
      <point x="361" y="242"/>
      <point x="335" y="177"/>
      <point x="274" y="177" type="curve" smooth="yes"/>
    </contour>
  </outline>
</glyph>
<glyph name="A" format="1">
  <advance width="600"/>
  <unicode hex="0041"/>
  <outline>
    <contour>
      <point x="66" y="0" type="line"/>
      <point x="119" y="0" type="line"/>
      <point x="276" y="700" type="line"/>
      <point x="223" y="700" type="line"/>
    </contour>
    <contour>
      <point x="324" y="700" type="line"/>
      <point x="481" y="0" type="line"/>
      <point x="534" y="0" type="line"/>
      <point x="377" y="700" type="line"/>
    </contour>
    <contour>
      <point x="235" y="653" type="line"/>
      <point x="365" y="653" type="line"/>
      <point x="365" y="700" type="line"/>
      <point x="235" y="700" type="line"/>
    </contour>
    <contour>
      <point x="143" y="232" type="line"/>
      <point x="457" y="232" type="line"/>
      <point x="457" y="279" type="line"/>
      <point x="143" y="279" type="line"/>
    </contour>
  </outline>
</glyph>
<glyph name="B" format="1">
  <advance width="600"/>
  <unicode hex="0042"/>
  <outline>
    <contour>
      <point x="416" y="369"/>
      <point x="488" y="393"/>
      <point x="488" y="529" type="curve" smooth="yes"/>
      <point x="488" y="690"/>
      <point x="390" y="700"/>
      <point x="306" y="700" type="curve" smooth="yes"/>
      <point x="111" y="700" type="line"/>
      <point x="111" y="0" type="line"/>
      <point x="350" y="0" type="line" smooth="yes"/>
      <point x="469" y="0"/>
      <point x="523" y="66"/>
      <point x="523" y="200" type="curve" smooth="yes"/>
      <point x="523" y="349"/>
      <point x="416" y="369"/>
      <point x="416" y="369" type="curve" smooth="yes"/>
    </contour>
    <contour>
      <point x="328" y="653" type="line" smooth="yes"/>
      <point x="387" y="653"/>
      <point x="433" y="631"/>
      <point x="433" y="526" type="curve" smooth="yes"/>
      <point x="433" y="436"/>
      <point x="402" y="384"/>
      <point x="342" y="384" type="curve" smooth="yes"/>
      <point x="162" y="384" type="line"/>
      <point x="162" y="653" type="line"/>
    </contour>
    <contour>
      <point x="162" y="47" type="line"/>
      <point x="162" y="338" type="line"/>
      <point x="362" y="338" type="line" smooth="yes"/>
      <point x="419" y="338"/>
      <point x="471" y="296"/>
      <point x="471" y="200" type="curve" smooth="yes"/>
      <point x="471" y="92"/>
      <point x="434" y="47"/>
      <point x="348" y="47" type="curve" smooth="yes"/>
    </contour>
  </outline>
</glyph>
<glyph name="C" format="1">
  <advance width="600"/>
  <unicode hex="0043"/>
  <outline>
    <contour>
      <point x="478" y="122" type="line"/>
      <point x="449" y="65"/>
      <point x="394" y="37"/>
      <point x="319" y="37" type="curve" smooth="yes"/>
      <point x="203" y="37"/>
      <point x="140" y="126"/>
      <point x="140" y="348" type="curve" smooth="yes"/>
      <point x="140" y="570"/>
      <point x="206" y="658"/>
      <point x="322" y="658" type="curve" smooth="yes"/>
      <point x="398" y="658"/>
      <point x="446" y="629"/>
      <point x="477" y="567" type="curve"/>
      <point x="525" y="592" type="line"/>
      <point x="485" y="667"/>
      <point x="418" y="706"/>
      <point x="322" y="706" type="curve"/>
      <point x="171" y="706"/>
      <point x="86" y="604"/>
      <point x="86" y="348" type="curve" smooth="yes"/>
      <point x="86" y="92"/>
      <point x="168" y="-11"/>
      <point x="319" y="-11" type="curve" smooth="yes"/>
      <point x="418" y="-11"/>
      <point x="490" y="26"/>
      <point x="526" y="96" type="curve"/>
    </contour>
  </outline>
</glyph>
<glyph name="D" format="1">
  <advance width="600"/>
  <unicode hex="0044"/>
  <outline>
    <contour>
      <point x="507" y="350" type="line"/>
      <point x="507" y="700"/>
      <point x="355" y="700"/>
      <point x="260" y="700" type="curve" smooth="yes"/>
      <point x="113" y="700" type="line"/>
      <point x="113" y="350" type="line"/>
      <point x="146" y="350" type="line"/>
      <point x="146" y="402" type="line"/>
      <point x="146" y="668" type="line"/>
      <point x="283" y="668" type="line"/>
      <point x="405" y="668"/>
      <point x="472" y="596"/>
      <point x="472" y="350" type="curve"/>
    </contour>
    <contour>
      <point x="472" y="104"/>
      <point x="405" y="32"/>
      <point x="283" y="32" type="curve"/>
      <point x="146" y="32" type="line"/>
      <point x="146" y="298" type="line"/>
      <point x="146" y="350" type="line"/>
      <point x="113" y="350" type="line"/>
      <point x="113" y="0" type="line"/>
      <point x="260" y="0" type="line" smooth="yes"/>
      <point x="355" y="0"/>
      <point x="507" y="0"/>
      <point x="507" y="350" type="curve"/>
      <point x="472" y="350" type="line"/>
    </contour>
  </outline>
</glyph>
<glyph name="E" format="1">
  <advance width="600"/>
  <unicode hex="0045"/>
  <outline>
    <contour>
      <point x="157" y="0" type="line"/>
      <point x="157" y="700" type="line"/>
      <point x="124" y="700" type="line"/>
      <point x="124" y="0" type="line"/>
    </contour>
    <contour>
      <point x="156" y="0" type="line"/>
      <point x="498" y="0" type="line"/>
      <point x="498" y="32" type="line"/>
      <point x="156" y="32" type="line"/>
    </contour>
    <contour>
      <point x="156" y="328" type="line"/>
      <point x="444" y="328" type="line"/>
      <point x="444" y="360" type="line"/>
      <point x="156" y="360" type="line"/>
    </contour>
    <contour>
      <point x="156" y="668" type="line"/>
      <point x="498" y="668" type="line"/>
      <point x="498" y="700" type="line"/>
      <point x="156" y="700" type="line"/>
    </contour>
  </outline>
</glyph>
<glyph name="F" format="1">
  <advance width="600"/>
  <unicode hex="0046"/>
  <outline>
    <contour>
      <point x="196" y="0" type="line"/>
      <point x="196" y="700" type="line"/>
      <point x="145" y="700" type="line"/>
      <point x="145" y="0" type="line"/>
    </contour>
    <contour>
      <point x="186" y="321" type="line"/>
      <point x="491" y="321" type="line"/>
      <point x="491" y="367" type="line"/>
      <point x="186" y="367" type="line"/>
    </contour>
    <contour>
      <point x="186" y="653" type="line"/>
      <point x="531" y="653" type="line"/>
      <point x="531" y="700" type="line"/>
      <point x="186" y="700" type="line"/>
    </contour>
  </outline>
</glyph>
<glyph name="G" format="1">
  <advance width="600"/>
  <unicode hex="0047"/>
  <outline>
    <contour>
      <point x="481" y="116" type="line"/>
      <point x="452" y="73"/>
      <point x="403" y="37"/>
      <point x="307" y="37" type="curve" smooth="yes"/>
      <point x="191" y="37"/>
      <point x="128" y="125"/>
      <point x="128" y="348" type="curve" smooth="yes"/>
      <point x="128" y="571"/>
      <point x="203" y="658"/>
      <point x="319" y="658" type="curve" smooth="yes"/>
      <point x="395" y="658"/>
      <point x="433" y="629"/>
      <point x="464" y="567" type="curve"/>
      <point x="512" y="592" type="line"/>
      <point x="472" y="667"/>
      <point x="415" y="706"/>
      <point x="319" y="706" type="curve"/>
      <point x="168" y="706"/>
      <point x="74" y="606"/>
      <point x="74" y="348" type="curve" smooth="yes"/>
      <point x="74" y="90"/>
      <point x="156" y="-11"/>
      <point x="307" y="-11" type="curve" smooth="yes"/>
      <point x="429" y="-11"/>
      <point x="497" y="45"/>
      <point x="529" y="91" type="curve"/>
    </contour>
    <contour>
      <point x="321" y="331" type="line"/>
      <point x="529" y="331" type="line"/>
      <point x="529" y="378" type="line"/>
      <point x="321" y="378" type="line"/>
    </contour>
    <contour>
      <point x="529" y="91" type="line"/>
      <point x="529" y="378" type="line"/>
      <point x="478" y="378" type="line"/>
      <point x="478" y="91" type="line"/>
    </contour>
  </outline>
</glyph>
<glyph name="H" format="1">
  <advance width="600"/>
  <unicode hex="0048"/>
  <outline>
    <contour>
      <point x="159" y="0" type="line"/>
      <point x="159" y="700" type="line"/>
      <point x="108" y="700" type="line"/>
      <point x="108" y="0" type="line"/>
    </contour>
    <contour>
      <point x="149" y="341" type="line"/>
      <point x="454" y="341" type="line"/>
      <point x="454" y="387" type="line"/>
      <point x="149" y="387" type="line"/>
    </contour>
    <contour>
      <point x="491" y="0" type="line"/>
      <point x="491" y="700" type="line"/>
      <point x="440" y="700" type="line"/>
      <point x="440" y="0" type="line"/>
    </contour>
  </outline>
</glyph>
<glyph name="I" format="1">
  <advance width="600"/>
  <unicode hex="0049"/>
  <outline>
    <contour>
      <point x="315" y="0" type="line"/>
      <point x="315" y="700" type="line"/>
      <point x="282" y="700" type="line"/>
      <point x="282" y="0" type="line"/>
    </contour>
    <contour>
      <point x="113" y="0" type="line"/>
      <point x="485" y="0" type="line"/>
      <point x="485" y="32" type="line"/>
      <point x="113" y="32" type="line"/>
    </contour>
    <contour>
      <point x="113" y="668" type="line"/>
      <point x="485" y="668" type="line"/>
      <point x="485" y="700" type="line"/>
      <point x="113" y="700" type="line"/>
    </contour>
  </outline>
</glyph>
<glyph name="J" format="1">
  <advance width="600"/>
  <unicode hex="004A"/>
  <outline>
    <contour>
      <point x="394" y="700" type="line"/>
      <point x="394" y="191" type="line"/>
      <point x="445" y="171" type="line"/>
      <point x="445" y="700" type="line"/>
    </contour>
    <contour>
      <point x="101" y="21" type="line"/>
      <point x="138" y="3"/>
      <point x="181" y="-9"/>
      <point x="245" y="-9" type="curve"/>
      <point x="361" y="-9"/>
      <point x="445" y="53"/>
      <point x="445" y="171" type="curve"/>
      <point x="394" y="191" type="line"/>
      <point x="394" y="84"/>
      <point x="340" y="39"/>
      <point x="238" y="39" type="curve"/>
      <point x="201" y="39"/>
      <point x="160" y="47"/>
      <point x="131" y="63" type="curve"/>
    </contour>
    <contour>
      <point x="140" y="653" type="line"/>
      <point x="424" y="653" type="line"/>
      <point x="424" y="700" type="line"/>
      <point x="140" y="700" type="line"/>
    </contour>
  </outline>
</glyph>
<glyph name="K" format="1">
  <advance width="600"/>
  <unicode hex="004B"/>
  <outline>
    <contour>
      <point x="175" y="0" type="line"/>
      <point x="175" y="700" type="line"/>
      <point x="124" y="700" type="line"/>
      <point x="124" y="0" type="line"/>
    </contour>
    <contour>
      <point x="165" y="336" type="line"/>
      <point x="279" y="336" type="line"/>
      <point x="279" y="382" type="line"/>
      <point x="165" y="382" type="line"/>
    </contour>
    <contour>
      <point x="236" y="373" type="line"/>
      <point x="279" y="346" type="line"/>
      <point x="518" y="700" type="line"/>
      <point x="457" y="700" type="line"/>
    </contour>
    <contour>
      <point x="535" y="0" type="line"/>
      <point x="279" y="371" type="line"/>
      <point x="218" y="371" type="line"/>
      <point x="474" y="0" type="line"/>
    </contour>
  </outline>
</glyph>
<glyph name="L" format="1">
  <advance width="600"/>
  <unicode hex="004C"/>
  <outline>
    <contour>
      <point x="186" y="0" type="line"/>
      <point x="186" y="700" type="line"/>
      <point x="153" y="700" type="line"/>
      <point x="153" y="0" type="line"/>
    </contour>
    <contour>
      <point x="185" y="0" type="line"/>
      <point x="527" y="0" type="line"/>
      <point x="527" y="32" type="line"/>
      <point x="185" y="32" type="line"/>
    </contour>
  </outline>
</glyph>
<glyph name="M" format="1">
  <advance width="600"/>
  <unicode hex="004D"/>
  <outline>
    <contour>
      <point x="96" y="0" type="line"/>
      <point x="132" y="700" type="line"/>
      <point x="101" y="700" type="line"/>
      <point x="62" y="0" type="line"/>
    </contour>
    <contour>
      <point x="538" y="0" type="line"/>
      <point x="499" y="700" type="line"/>
      <point x="468" y="700" type="line"/>
      <point x="504" y="0" type="line"/>
    </contour>
    <contour>
      <point x="352" y="291" type="line"/>
      <point x="288" y="40" type="line"/>
      <point x="320" y="40" type="line"/>
      <point x="475" y="632" type="line"/>
      <point x="491" y="700" type="line"/>
      <point x="459" y="700" type="line"/>
    </contour>
    <contour>
      <point x="109" y="700" type="line"/>
      <point x="125" y="632" type="line"/>
      <point x="279" y="40" type="line"/>
      <point x="311" y="40" type="line"/>
      <point x="247" y="291" type="line"/>
      <point x="141" y="700" type="line"/>
    </contour>
  </outline>
</glyph>
<glyph name="N" format="1">
  <advance width="600"/>
  <unicode hex="004E"/>
  <outline>
    <contour>
      <point x="153" y="0" type="line"/>
      <point x="153" y="700" type="line"/>
      <point x="102" y="700" type="line"/>
      <point x="102" y="0" type="line"/>
    </contour>
    <contour>
      <point x="118" y="700" type="line"/>
      <point x="432" y="0" type="line"/>
      <point x="484" y="0" type="line"/>
      <point x="170" y="700" type="line"/>
    </contour>
    <contour>
      <point x="500" y="0" type="line"/>
      <point x="500" y="700" type="line"/>
      <point x="449" y="700" type="line"/>
      <point x="449" y="0" type="line"/>
    </contour>
  </outline>
</glyph>
<glyph name="O" format="1">
  <advance width="600"/>
  <unicode hex="004F"/>
  <outline>
    <contour>
      <point x="422" y="-11"/>
      <point x="530" y="53"/>
      <point x="530" y="348" type="curve" smooth="yes"/>
      <point x="530" y="642"/>
      <point x="422" y="706"/>
      <point x="297" y="706" type="curve" smooth="yes"/>
      <point x="171" y="706"/>
      <point x="63" y="642"/>
      <point x="63" y="348" type="curve" smooth="yes"/>
      <point x="63" y="53"/>
      <point x="171" y="-11"/>
      <point x="297" y="-11" type="curve" smooth="yes"/>
    </contour>
    <contour>
      <point x="197" y="37"/>
      <point x="119" y="92"/>
      <point x="119" y="348" type="curve" smooth="yes"/>
      <point x="119" y="603"/>
      <point x="197" y="658"/>
      <point x="297" y="658" type="curve" smooth="yes"/>
      <point x="396" y="658"/>
      <point x="474" y="603"/>
      <point x="474" y="348" type="curve" smooth="yes"/>
      <point x="474" y="92"/>
      <point x="396" y="37"/>
      <point x="297" y="37" type="curve" smooth="yes"/>
    </contour>
  </outline>
</glyph>
<glyph name="P" format="1">
  <advance width="600"/>
  <unicode hex="0050"/>
  <outline>
    <contour>
      <point x="338" y="653" type="line" smooth="yes"/>
      <point x="403" y="653"/>
      <point x="487" y="648"/>
      <point x="487" y="479" type="curve" smooth="yes"/>
      <point x="487" y="307"/>
      <point x="403" y="294"/>
      <point x="338" y="294" type="curve" smooth="yes"/>
      <point x="176" y="294" type="line"/>
      <point x="176" y="653" type="line"/>
    </contour>
    <contour>
      <point x="409" y="247"/>
      <point x="539" y="265"/>
      <point x="539" y="479" type="curve" smooth="yes"/>
      <point x="539" y="690"/>
      <point x="409" y="700"/>
      <point x="325" y="700" type="curve" smooth="yes"/>
      <point x="125" y="700" type="line"/>
      <point x="125" y="0" type="line"/>
      <point x="176" y="0" type="line"/>
      <point x="176" y="247" type="line"/>
      <point x="325" y="247" type="line" smooth="yes"/>
    </contour>
  </outline>
</glyph>
<glyph name="Q" format="1">
  <advance width="600"/>
  <unicode hex="0051"/>
  <outline>
    <contour>
      <point x="413" y="-11"/>
      <point x="521" y="50"/>
      <point x="521" y="348" type="curve" smooth="yes"/>
      <point x="521" y="645"/>
      <point x="413" y="706"/>
      <point x="297" y="706" type="curve" smooth="yes"/>
      <point x="180" y="706"/>
      <point x="72" y="645"/>
      <point x="72" y="348" type="curve" smooth="yes"/>
      <point x="72" y="50"/>
      <point x="180" y="-11"/>
      <point x="297" y="-11" type="curve" smooth="yes"/>
    </contour>
    <contour>
      <point x="530" y="-26" type="line"/>
      <point x="435" y="69" type="line"/>
      <point x="409" y="42" type="line"/>
      <point x="503" y="-52" type="line"/>
    </contour>
    <contour>
      <point x="194" y="22"/>
      <point x="110" y="79"/>
      <point x="110" y="348" type="curve" smooth="yes"/>
      <point x="110" y="616"/>
      <point x="194" y="673"/>
      <point x="297" y="673" type="curve" smooth="yes"/>
      <point x="399" y="673"/>
      <point x="483" y="616"/>
      <point x="483" y="348" type="curve" smooth="yes"/>
      <point x="483" y="79"/>
      <point x="399" y="22"/>
      <point x="297" y="22" type="curve" smooth="yes"/>
    </contour>
  </outline>
</glyph>
<glyph name="R" format="1">
  <advance width="600"/>
  <unicode hex="0052"/>
  <outline>
    <contour>
      <point x="352" y="653" type="line" smooth="yes"/>
      <point x="417" y="653"/>
      <point x="467" y="621"/>
      <point x="467" y="510" type="curve" smooth="yes"/>
      <point x="467" y="393"/>
      <point x="422" y="358"/>
      <point x="357" y="358" type="curve" smooth="yes"/>
      <point x="164" y="358" type="line"/>
      <point x="164" y="653" type="line"/>
    </contour>
    <contour>
      <point x="425" y="311"/>
      <point x="518" y="343"/>
      <point x="518" y="510" type="curve" smooth="yes"/>
      <point x="518" y="683"/>
      <point x="411" y="700"/>
      <point x="327" y="700" type="curve" smooth="yes"/>
      <point x="113" y="700" type="line"/>
      <point x="113" y="0" type="line"/>
      <point x="164" y="0" type="line"/>
      <point x="164" y="311" type="line"/>
      <point x="341" y="311" type="line" smooth="yes"/>
    </contour>
    <contour>
      <point x="514" y="0" type="line"/>
      <point x="377" y="327" type="line"/>
      <point x="322" y="327" type="line"/>
      <point x="457" y="0" type="line"/>
    </contour>
  </outline>
</glyph>
<glyph name="S" format="1">
  <advance width="600"/>
  <unicode hex="0053"/>
  <outline>
    <contour>
      <point x="206" y="428"/>
      <point x="151" y="477"/>
      <point x="151" y="546" type="curve" smooth="yes"/>
      <point x="151" y="625"/>
      <point x="221" y="658"/>
      <point x="306" y="658" type="curve" smooth="yes"/>
      <point x="391" y="658"/>
      <point x="438" y="627"/>
      <point x="466" y="566" type="curve"/>
      <point x="515" y="591" type="line"/>
      <point x="477" y="669"/>
      <point x="405" y="706"/>
      <point x="306" y="706" type="curve" smooth="yes"/>
      <point x="188" y="706"/>
      <point x="96" y="655"/>
      <point x="96" y="544" type="curve" smooth="yes"/>
      <point x="96" y="442"/>
      <point x="184" y="378"/>
      <point x="293" y="339" type="curve" smooth="yes"/>
      <point x="411" y="295"/>
      <point x="480" y="249"/>
      <point x="480" y="173" type="curve" smooth="yes"/>
      <point x="480" y="87"/>
      <point x="416" y="37"/>
      <point x="302" y="37" type="curve" smooth="yes"/>
      <point x="206" y="37"/>
      <point x="147" y="69"/>
      <point x="115" y="132" type="curve"/>
      <point x="63" y="106" type="line"/>
      <point x="107" y="25"/>
      <point x="188" y="-11"/>
      <point x="302" y="-11" type="curve" smooth="yes"/>
      <point x="440" y="-11"/>
      <point x="535" y="54"/>
      <point x="535" y="175" type="curve" smooth="yes"/>
      <point x="535" y="282"/>
      <point x="439" y="338"/>
      <point x="293" y="394" type="curve" smooth="yes"/>
    </contour>
  </outline>
</glyph>
<glyph name="T" format="1">
  <advance width="600"/>
  <unicode hex="0054"/>
  <outline>
    <contour>
      <point x="315" y="0" type="line"/>
      <point x="315" y="700" type="line"/>
      <point x="282" y="700" type="line"/>
      <point x="282" y="0" type="line"/>
    </contour>
    <contour>
      <point x="73" y="668" type="line"/>
      <point x="525" y="668" type="line"/>
      <point x="525" y="700" type="line"/>
      <point x="73" y="700" type="line"/>
    </contour>
  </outline>
</glyph>
<glyph name="U" format="1">
  <advance width="600"/>
  <unicode hex="0055"/>
  <outline>
    <contour>
      <point x="439" y="-11"/>
      <point x="514" y="53"/>
      <point x="514" y="282" type="curve" smooth="yes"/>
      <point x="514" y="282"/>
      <point x="514" y="700"/>
      <point x="514" y="700" type="curve" smooth="yes"/>
      <point x="463" y="700" type="line" smooth="yes"/>
      <point x="463" y="700"/>
      <point x="463" y="272"/>
      <point x="463" y="272" type="curve" smooth="yes"/>
      <point x="463" y="89"/>
      <point x="410" y="37"/>
      <point x="301" y="37" type="curve" smooth="yes"/>
      <point x="193" y="37"/>
      <point x="138" y="89"/>
      <point x="138" y="272" type="curve" smooth="yes"/>
      <point x="138" y="272"/>
      <point x="138" y="700"/>
      <point x="138" y="700" type="curve" smooth="yes"/>
      <point x="87" y="700" type="line" smooth="yes"/>
      <point x="87" y="700"/>
      <point x="87" y="282"/>
      <point x="87" y="282" type="curve" smooth="yes"/>
      <point x="87" y="53"/>
      <point x="164" y="-11"/>
      <point x="301" y="-11" type="curve" smooth="yes"/>
    </contour>
  </outline>
</glyph>
<glyph name="V" format="1">
  <advance width="600"/>
  <unicode hex="0056"/>
  <outline>
    <contour>
      <point x="287" y="0" type="line"/>
      <point x="130" y="700" type="line"/>
      <point x="76" y="700" type="line"/>
      <point x="233" y="0" type="line"/>
    </contour>
    <contour>
      <point x="530" y="700" type="line"/>
      <point x="476" y="700" type="line"/>
      <point x="319" y="0" type="line"/>
      <point x="373" y="0" type="line"/>
    </contour>
    <contour>
      <point x="361" y="0" type="line"/>
      <point x="361" y="47" type="line"/>
      <point x="245" y="47" type="line"/>
      <point x="245" y="0" type="line"/>
    </contour>
  </outline>
</glyph>
<glyph name="W" format="1">
  <advance width="600"/>
  <unicode hex="0057"/>
  <outline>
    <contour>
      <point x="467" y="0" type="line"/>
      <point x="549" y="700" type="line"/>
      <point x="515" y="700" type="line"/>
      <point x="442" y="49" type="line"/>
      <point x="439" y="0" type="line"/>
    </contour>
    <contour>
      <point x="167" y="0" type="line"/>
      <point x="163" y="49" type="line"/>
      <point x="91" y="700" type="line"/>
      <point x="57" y="700" type="line"/>
      <point x="139" y="0" type="line"/>
    </contour>
    <contour>
      <point x="184" y="0" type="line"/>
      <point x="301" y="609" type="line"/>
      <point x="310" y="662" type="line"/>
      <point x="281" y="662" type="line"/>
      <point x="164" y="68" type="line"/>
      <point x="155" y="0" type="line"/>
    </contour>
    <contour>
      <point x="451" y="0" type="line"/>
      <point x="442" y="68" type="line"/>
      <point x="325" y="662" type="line"/>
      <point x="296" y="662" type="line"/>
      <point x="305" y="609" type="line"/>
      <point x="422" y="0" type="line"/>
    </contour>
  </outline>
</glyph>
<glyph name="X" format="1">
  <advance width="600"/>
  <unicode hex="0058"/>
  <outline>
    <contour>
      <point x="293" y="323" type="line"/>
      <point x="361" y="323" type="line"/>
      <point x="361" y="369" type="line"/>
      <point x="293" y="369" type="line"/>
    </contour>
    <contour>
      <point x="320" y="360" type="line"/>
      <point x="362" y="333" type="line"/>
      <point x="526" y="700" type="line"/>
      <point x="468" y="700" type="line"/>
    </contour>
    <contour>
      <point x="526" y="0" type="line"/>
      <point x="360" y="360" type="line"/>
      <point x="305" y="360" type="line"/>
      <point x="468" y="0" type="line"/>
    </contour>
    <contour>
      <point x="235" y="369" type="line"/>
      <point x="235" y="323" type="line"/>
      <point x="298" y="323" type="line"/>
      <point x="298" y="369" type="line"/>
    </contour>
    <contour>
      <point x="70" y="700" type="line"/>
      <point x="234" y="333" type="line"/>
      <point x="276" y="360" type="line"/>
      <point x="128" y="700" type="line"/>
    </contour>
    <contour>
      <point x="291" y="360" type="line"/>
      <point x="237" y="360" type="line"/>
      <point x="70" y="0" type="line"/>
      <point x="128" y="0" type="line"/>
    </contour>
  </outline>
</glyph>
<glyph name="Y" format="1">
  <advance width="600"/>
  <unicode hex="0059"/>
  <outline>
    <contour>
      <point x="299" y="346" type="line"/>
      <point x="326" y="284" type="line"/>
      <point x="534" y="700" type="line"/>
      <point x="477" y="700" type="line"/>
    </contour>
    <contour>
      <point x="66" y="700" type="line"/>
      <point x="277" y="279" type="line"/>
      <point x="302" y="346" type="line"/>
      <point x="123" y="700" type="line"/>
    </contour>
    <contour>
      <point x="326" y="0" type="line"/>
      <point x="326" y="351" type="line"/>
      <point x="275" y="351" type="line"/>
      <point x="275" y="0" type="line"/>
    </contour>
  </outline>
</glyph>
<glyph name="Z" format="1">
  <advance width="600"/>
  <unicode hex="005A"/>
  <outline>
    <contour>
      <point x="157" y="47" type="line"/>
      <point x="505" y="653" type="line"/>
      <point x="448" y="653" type="line"/>
      <point x="99" y="47" type="line"/>
    </contour>
    <contour>
      <point x="107" y="653" type="line"/>
      <point x="505" y="653" type="line"/>
      <point x="505" y="700" type="line"/>
      <point x="107" y="700" type="line"/>
    </contour>
    <contour>
      <point x="99" y="0" type="line"/>
      <point x="517" y="0" type="line"/>
      <point x="517" y="47" type="line"/>
      <point x="99" y="47" type="line"/>
    </contour>
  </outline>
</glyph>
<glyph name="bracketleft" format="1">
  <advance width="600"/>
  <unicode hex="005B"/>
  <outline>
    <contour>
      <point x="312" y="800" type="line"/>
      <point x="312" y="753" type="line"/>
      <point x="480" y="753" type="line"/>
      <point x="480" y="800" type="line"/>
    </contour>
    <contour>
      <point x="317" y="800" type="line"/>
      <point x="266" y="800" type="line"/>
      <point x="266" y="-200" type="line"/>
      <point x="317" y="-200" type="line"/>
    </contour>
    <contour>
      <point x="312" y="-153" type="line"/>
      <point x="312" y="-200" type="line"/>
      <point x="480" y="-200" type="line"/>
      <point x="480" y="-153" type="line"/>
    </contour>
  </outline>
</glyph>
<glyph name="backslash" format="1">
  <advance width="600"/>
  <unicode hex="005C"/>
  <outline>
    <contour>
      <point x="404" y="-142" type="line"/>
      <point x="448" y="-142" type="line"/>
      <point x="199" y="800" type="line"/>
      <point x="155" y="800" type="line"/>
    </contour>
  </outline>
</glyph>
<glyph name="asciicircum" format="1">
  <advance width="600"/>
  <unicode hex="005E"/>
  <outline>
    <contour>
      <point x="432" y="580" type="line"/>
      <point x="348" y="800" type="line"/>
      <point x="258" y="800" type="line"/>
      <point x="174" y="580" type="line"/>
      <point x="222" y="580" type="line"/>
      <point x="289" y="757" type="line"/>
      <point x="317" y="757" type="line"/>
      <point x="384" y="580" type="line"/>
    </contour>
  </outline>
</glyph>
<glyph name="underscore" format="1">
  <advance width="600"/>
  <unicode hex="005F"/>
  <outline>
    <contour>
      <point x="52" y="-122" type="line"/>
      <point x="548" y="-122" type="line"/>
      <point x="548" y="-76" type="line"/>
      <point x="52" y="-76" type="line"/>
    </contour>
  </outline>
</glyph>
<glyph name="grave" format="1">
  <advance width="600"/>
  <unicode hex="0060"/>
  <outline>
    <contour>
      <point x="281" y="740" type="line"/>
      <point x="229" y="740" type="line"/>
      <point x="360" y="609" type="line"/>
      <point x="391" y="609" type="line"/>
    </contour>
  </outline>
</glyph>
<glyph name="a" format="1">
  <advance width="600"/>
  <unicode hex="0061"/>
  <outline>
    <contour>
      <point x="467" y="381" type="line"/>
      <point x="467" y="472"/>
      <point x="385" y="512"/>
      <point x="296" y="512" type="curve"/>
      <point x="207" y="512"/>
      <point x="157" y="491"/>
      <point x="123" y="457" type="curve"/>
      <point x="147" y="432" type="line"/>
      <point x="172" y="460"/>
      <point x="224" y="479"/>
      <point x="289" y="479" type="curve"/>
      <point x="367" y="479"/>
      <point x="434" y="452"/>
      <point x="434" y="373" type="curve"/>
    </contour>
    <contour>
      <point x="403" y="-11"/>
      <point x="459" y="76"/>
      <point x="459" y="76" type="curve"/>
      <point x="449" y="124" type="line"/>
      <point x="438" y="88"/>
      <point x="371" y="21"/>
      <point x="280" y="21" type="curve"/>
      <point x="189" y="21"/>
      <point x="121" y="50"/>
      <point x="121" y="153" type="curve"/>
      <point x="88" y="153" type="line"/>
      <point x="88" y="41"/>
      <point x="157" y="-11"/>
      <point x="266" y="-11" type="curve"/>
    </contour>
    <contour>
      <point x="121" y="153" type="line"/>
      <point x="121" y="265"/>
      <point x="184" y="284"/>
      <point x="320" y="284" type="curve"/>
      <point x="292" y="316" type="line"/>
      <point x="140" y="316"/>
      <point x="88" y="264"/>
      <point x="88" y="153" type="curve"/>
    </contour>
    <contour>
      <point x="533" y="21" type="line"/>
      <point x="446" y="107" type="line"/>
      <point x="434" y="73" type="line"/>
      <point x="510" y="-2" type="line"/>
    </contour>
    <contour>
      <point x="458" y="284" type="line"/>
      <point x="458" y="316" type="line"/>
      <point x="292" y="316" type="line"/>
      <point x="320" y="284" type="line"/>
    </contour>
    <contour>
      <point x="467" y="294" type="line"/>
      <point x="434" y="294" type="line"/>
      <point x="434" y="90" type="line"/>
      <point x="467" y="81" type="line"/>
    </contour>
    <contour>
      <point x="467" y="209" type="line"/>
      <point x="467" y="381" type="line"/>
      <point x="434" y="373" type="line"/>
      <point x="434" y="209" type="line"/>
    </contour>
  </outline>
</glyph>
<glyph name="b" format="1">
  <advance width="600"/>
  <unicode hex="0062"/>
  <outline>
    <contour>
      <point x="161" y="0" type="line"/>
      <point x="166" y="71" type="line"/>
      <point x="166" y="800" type="line"/>
      <point x="115" y="800" type="line"/>
      <point x="115" y="0" type="line"/>
    </contour>
    <contour>
      <point x="164" y="315" type="line"/>
      <point x="177" y="376"/>
      <point x="236" y="463"/>
      <point x="325" y="463" type="curve" smooth="yes"/>
      <point x="415" y="463"/>
      <point x="462" y="405"/>
      <point x="462" y="251" type="curve"/>
      <point x="513" y="251" type="line"/>
      <point x="513" y="434"/>
      <point x="440" y="511"/>
      <point x="335" y="511" type="curve" smooth="yes"/>
      <point x="210" y="511"/>
      <point x="135" y="407"/>
      <point x="135" y="295" type="curve"/>
    </contour>
    <contour>
      <point x="135" y="102"/>
      <point x="196" y="-11"/>
      <point x="325" y="-11" type="curve" smooth="yes"/>
      <point x="430" y="-11"/>
      <point x="513" y="68"/>
      <point x="513" y="251" type="curve"/>
      <point x="462" y="251" type="line"/>
      <point x="462" y="99"/>
      <point x="405" y="37"/>
      <point x="315" y="37" type="curve" smooth="yes"/>
      <point x="226" y="37"/>
      <point x="173" y="126"/>
      <point x="164" y="197" type="curve"/>
      <point x="135" y="214" type="line"/>
    </contour>
  </outline>
</glyph>
<glyph name="c" format="1">
  <advance width="600"/>
  <unicode hex="0063"/>
  <outline>
    <contour>
      <point x="468" y="119" type="line"/>
      <point x="446" y="76"/>
      <point x="405" y="37"/>
      <point x="338" y="37" type="curve" smooth="yes"/>
      <point x="258" y="37"/>
      <point x="175" y="103"/>
      <point x="175" y="251" type="curve" smooth="yes"/>
      <point x="175" y="401"/>
      <point x="258" y="464"/>
      <point x="338" y="464" type="curve" smooth="yes"/>
      <point x="405" y="464"/>
      <point x="442" y="434"/>
      <point x="468" y="378" type="curve"/>
      <point x="516" y="403" type="line"/>
      <point x="483" y="467"/>
      <point x="428" y="512"/>
      <point x="339" y="512" type="curve" smooth="yes"/>
      <point x="233" y="512"/>
      <point x="120" y="444"/>
      <point x="120" y="251" type="curve" smooth="yes"/>
      <point x="120" y="60"/>
      <point x="233" y="-11"/>
      <point x="339" y="-11" type="curve" smooth="yes"/>
      <point x="429" y="-11"/>
      <point x="490" y="43"/>
      <point x="516" y="93" type="curve"/>
    </contour>
  </outline>
</glyph>
<glyph name="e" format="1">
  <advance width="600"/>
  <unicode hex="0065"/>
  <outline>
    <contour>
      <point x="465" y="111" type="line"/>
      <point x="446" y="77"/>
      <point x="410" y="22"/>
      <point x="307" y="22" type="curve" smooth="yes"/>
      <point x="204" y="22"/>
      <point x="132" y="102"/>
      <point x="132" y="251" type="curve" smooth="yes"/>
      <point x="132" y="404"/>
      <point x="205" y="479"/>
      <point x="308" y="479" type="curve" smooth="yes"/>
      <point x="412" y="479"/>
      <point x="468" y="373"/>
      <point x="465" y="281" type="curve"/>
      <point x="504" y="249" type="line"/>
      <point x="514" y="389"/>
      <point x="441" y="512"/>
      <point x="310" y="512" type="curve" smooth="yes"/>
      <point x="193" y="512"/>
      <point x="95" y="438"/>
      <point x="95" y="251" type="curve" smooth="yes"/>
      <point x="95" y="68"/>
      <point x="193" y="-11"/>
      <point x="307" y="-11" type="curve" smooth="yes"/>
      <point x="421" y="-11"/>
      <point x="477" y="56"/>
      <point x="500" y="92" type="curve"/>
    </contour>
    <contour>
      <point x="128" y="249" type="line"/>
      <point x="504" y="249" type="line"/>
      <point x="470" y="281" type="line"/>
      <point x="128" y="281" type="line"/>
    </contour>
  </outline>
</glyph>
<glyph name="f" format="1">
  <advance width="600"/>
  <unicode hex="0066"/>
  <outline>
    <contour>
      <point x="313" y="0" type="line"/>
      <point x="313" y="606" type="line"/>
      <point x="262" y="626" type="line"/>
      <point x="262" y="0" type="line"/>
    </contour>
    <contour>
      <point x="130" y="453" type="line"/>
      <point x="508" y="453" type="line"/>
      <point x="508" y="500" type="line"/>
      <point x="130" y="500" type="line"/>
    </contour>
    <contour>
      <point x="530" y="796" type="line"/>
      <point x="505" y="803"/>
      <point x="477" y="807"/>
      <point x="442" y="807" type="curve"/>
      <point x="326" y="807"/>
      <point x="262" y="744"/>
      <point x="262" y="626" type="curve"/>
      <point x="313" y="606" type="line"/>
      <point x="313" y="727"/>
      <point x="361" y="759"/>
      <point x="449" y="759" type="curve"/>
      <point x="477" y="759"/>
      <point x="498" y="756"/>
      <point x="514" y="751" type="curve"/>
    </contour>
  </outline>
</glyph>
<glyph name="g" format="1">
  <advance width="600"/>
  <unicode hex="0067"/>
  <outline>
    <contour>
      <point x="398" y="149"/>
      <point x="500" y="188"/>
      <point x="500" y="331" type="curve" smooth="yes"/>
      <point x="500" y="473"/>
      <point x="407" y="512"/>
      <point x="301" y="512" type="curve" smooth="yes"/>
      <point x="194" y="512"/>
      <point x="101" y="473"/>
      <point x="101" y="331" type="curve" smooth="yes"/>
      <point x="101" y="188"/>
      <point x="198" y="149"/>
      <point x="301" y="149" type="curve" smooth="yes"/>
    </contour>
    <contour>
      <point x="211" y="197"/>
      <point x="156" y="229"/>
      <point x="156" y="331" type="curve" smooth="yes"/>
      <point x="156" y="432"/>
      <point x="201" y="465"/>
      <point x="301" y="465" type="curve" smooth="yes"/>
      <point x="400" y="465"/>
      <point x="445" y="435"/>
      <point x="445" y="331" type="curve" smooth="yes"/>
      <point x="445" y="229"/>
      <point x="390" y="197"/>
      <point x="301" y="197" type="curve" smooth="yes"/>
    </contour>
    <contour>
      <point x="237" y="-1" type="line"/>
      <point x="247" y="46" type="line"/>
      <point x="214" y="47" type="line" smooth="yes"/>
      <point x="138" y="48"/>
      <point x="179" y="151"/>
      <point x="228" y="178" type="curve"/>
      <point x="193" y="196" type="line"/>
      <point x="168" y="178"/>
      <point x="124" y="143"/>
      <point x="119" y="92" type="curve" smooth="yes"/>
      <point x="113" y="37"/>
      <point x="147" y="-1"/>
      <point x="219" y="-1" type="curve" smooth="yes"/>
    </contour>
    <contour>
      <point x="89" y="-139"/>
      <point x="159" y="-185"/>
      <point x="307" y="-185" type="curve"/>
      <point x="307" y="-139" type="line"/>
      <point x="202" y="-139"/>
      <point x="153" y="-113"/>
      <point x="146" y="-69" type="curve" smooth="yes"/>
      <point x="140" y="-25"/>
      <point x="174" y="11"/>
      <point x="193" y="23" type="curve"/>
      <point x="162" y="42" type="line"/>
      <point x="142" y="31"/>
      <point x="89" y="-4"/>
      <point x="89" y="-65" type="curve" smooth="yes"/>
    </contour>
    <contour>
      <point x="523" y="0"/>
      <point x="491" y="46"/>
      <point x="402" y="46" type="curve"/>
      <point x="380" y="-1" type="line"/>
      <point x="463" y="-1"/>
      <point x="466" y="-34"/>
      <point x="460" y="-64" type="curve" smooth="yes"/>
      <point x="453" y="-99"/>
      <point x="416" y="-139"/>
      <point x="307" y="-139" type="curve"/>
      <point x="307" y="-185" type="line"/>
      <point x="457" y="-185"/>
      <point x="509" y="-114"/>
      <point x="516" y="-57" type="curve" smooth="yes"/>
    </contour>
    <contour>
      <point x="402" y="46" type="line"/>
      <point x="402" y="46"/>
      <point x="401" y="46"/>
      <point x="401" y="46" type="curve" smooth="yes"/>
      <point x="247" y="46" type="line"/>
      <point x="237" y="-1" type="line"/>
      <point x="380" y="-1" type="line"/>
    </contour>
    <contour>
      <point x="430" y="447" type="line"/>
      <point x="463" y="413" type="line"/>
      <point x="552" y="501" type="line"/>
      <point x="519" y="534" type="line"/>
    </contour>
  </outline>
</glyph>
<glyph name="h" format="1">
  <advance width="600"/>
  <unicode hex="0068"/>
  <outline>
    <contour>
      <point x="154" y="0" type="line"/>
      <point x="154" y="800" type="line"/>
      <point x="103" y="800" type="line"/>
      <point x="103" y="0" type="line"/>
    </contour>
    <contour>
      <point x="153" y="318" type="line"/>
      <point x="160" y="395"/>
      <point x="238" y="464"/>
      <point x="328" y="464" type="curve" smooth="yes"/>
      <point x="424" y="464"/>
      <point x="441" y="405"/>
      <point x="441" y="273" type="curve" smooth="yes"/>
      <point x="441" y="0" type="line"/>
      <point x="492" y="0" type="line"/>
      <point x="492" y="289" type="line" smooth="yes"/>
      <point x="492" y="452"/>
      <point x="449" y="512"/>
      <point x="337" y="512" type="curve" smooth="yes"/>
      <point x="205" y="512"/>
      <point x="119" y="416"/>
      <point x="119" y="312" type="curve"/>
    </contour>
  </outline>
</glyph>
<glyph name="i" format="1">
  <advance width="600"/>
  <unicode hex="0069"/>
  <outline>
    <contour>
      <point x="101" y="468" type="line"/>
      <point x="274" y="468" type="line"/>
      <point x="274" y="500" type="line"/>
      <point x="101" y="500" type="line"/>
    </contour>
    <contour>
      <point x="302" y="26" type="line"/>
      <point x="302" y="500" type="line"/>
      <point x="269" y="500" type="line"/>
      <point x="269" y="1" type="line"/>
    </contour>
    <contour>
      <point x="269" y="0" type="line"/>
      <point x="461" y="0" type="line"/>
      <point x="461" y="32" type="line"/>
      <point x="269" y="32" type="line"/>
    </contour>
    <contour>
      <point x="309" y="653"/>
      <point x="329" y="673"/>
      <point x="329" y="698" type="curve" smooth="yes"/>
      <point x="329" y="723"/>
      <point x="309" y="743"/>
      <point x="284" y="743" type="curve" smooth="yes"/>
      <point x="259" y="743"/>
      <point x="239" y="723"/>
      <point x="239" y="698" type="curve" smooth="yes"/>
      <point x="239" y="673"/>
      <point x="259" y="653"/>
      <point x="284" y="653" type="curve" smooth="yes"/>
    </contour>
  </outline>
</glyph>
<glyph name="j" format="1">
  <advance width="600"/>
  <unicode hex="006A"/>
  <outline>
    <contour>
      <point x="367" y="500" type="line"/>
      <point x="367" y="8" type="line"/>
      <point x="400" y="-12" type="line"/>
      <point x="400" y="500" type="line"/>
    </contour>
    <contour>
      <point x="157" y="-186" type="line"/>
      <point x="178" y="-190"/>
      <point x="202" y="-192"/>
      <point x="229" y="-192" type="curve"/>
      <point x="315" y="-192"/>
      <point x="400" y="-130"/>
      <point x="400" y="-12" type="curve"/>
      <point x="367" y="8" type="line"/>
      <point x="367" y="-78"/>
      <point x="330" y="-159"/>
      <point x="222" y="-159" type="curve"/>
      <point x="201" y="-159"/>
      <point x="181" y="-156"/>
      <point x="166" y="-152" type="curve"/>
    </contour>
    <contour>
      <point x="159" y="468" type="line"/>
      <point x="379" y="468" type="line"/>
      <point x="379" y="500" type="line"/>
      <point x="159" y="500" type="line"/>
    </contour>
    <contour>
      <point x="404" y="653"/>
      <point x="424" y="673"/>
      <point x="424" y="698" type="curve" smooth="yes"/>
      <point x="424" y="723"/>
      <point x="404" y="743"/>
      <point x="379" y="743" type="curve" smooth="yes"/>
      <point x="354" y="743"/>
      <point x="334" y="724"/>
      <point x="334" y="698" type="curve" smooth="yes"/>
      <point x="334" y="673"/>
      <point x="354" y="653"/>
      <point x="379" y="653" type="curve" smooth="yes"/>
    </contour>
  </outline>
</glyph>
<glyph name="k" format="1">
  <advance width="600"/>
  <unicode hex="006B"/>
  <outline>
    <contour>
      <point x="191" y="0" type="line"/>
      <point x="191" y="800" type="line"/>
      <point x="140" y="800" type="line"/>
      <point x="140" y="0" type="line"/>
    </contour>
    <contour>
      <point x="174" y="236" type="line"/>
      <point x="275" y="236" type="line"/>
      <point x="275" y="282" type="line"/>
      <point x="174" y="282" type="line"/>
    </contour>
    <contour>
      <point x="235" y="271" type="line"/>
      <point x="278" y="246" type="line"/>
      <point x="512" y="500" type="line"/>
      <point x="448" y="500" type="line"/>
    </contour>
    <contour>
      <point x="528" y="0" type="line"/>
      <point x="282" y="273" type="line"/>
      <point x="219" y="273" type="line"/>
      <point x="463" y="0" type="line"/>
    </contour>
  </outline>
</glyph>
<glyph name="l" format="1">
  <advance width="600"/>
  <unicode hex="006C"/>
  <outline>
    <contour>
      <point x="291" y="42" type="line"/>
      <point x="291" y="800" type="line"/>
      <point x="240" y="800" type="line"/>
      <point x="240" y="31" type="line"/>
    </contour>
    <contour>
      <point x="460" y="0" type="line"/>
      <point x="460" y="47" type="line"/>
      <point x="240" y="47" type="line"/>
      <point x="240" y="0" type="line"/>
    </contour>
    <contour>
      <point x="245" y="753" type="line"/>
      <point x="245" y="800" type="line"/>
      <point x="91" y="800" type="line"/>
      <point x="91" y="753" type="line"/>
    </contour>
  </outline>
</glyph>
<glyph name="m" format="1">
  <advance width="600"/>
  <unicode hex="006D"/>
  <outline>
    <contour>
      <point x="556" y="0" type="line"/>
      <point x="556" y="329" type="line" smooth="yes"/>
      <point x="556" y="478"/>
      <point x="523" y="511"/>
      <point x="453" y="511" type="curve" smooth="yes"/>
      <point x="364" y="511"/>
      <point x="299" y="424"/>
      <point x="299" y="312" type="curve"/>
      <point x="331" y="352" type="line"/>
      <point x="338" y="391"/>
      <point x="381" y="463"/>
      <point x="440" y="463" type="curve" smooth="yes"/>
      <point x="493" y="463"/>
      <point x="506" y="436"/>
      <point x="506" y="310" type="curve" smooth="yes"/>
      <point x="506" y="0" type="line"/>
    </contour>
    <contour>
      <point x="111" y="0" type="line"/>
      <point x="111" y="402" type="line"/>
      <point x="111" y="402"/>
      <point x="105" y="500"/>
      <point x="105" y="500" type="curve"/>
      <point x="61" y="500" type="line"/>
      <point x="61" y="500"/>
      <point x="61" y="436"/>
      <point x="61" y="345" type="curve"/>
      <point x="61" y="0" type="line"/>
    </contour>
    <contour>
      <point x="331" y="0" type="line"/>
      <point x="331" y="352" type="line" smooth="yes"/>
      <point x="331" y="352"/>
      <point x="330" y="363"/>
      <point x="330" y="388" type="curve" smooth="yes"/>
      <point x="330" y="475"/>
      <point x="297" y="511"/>
      <point x="230" y="511" type="curve" smooth="yes"/>
      <point x="146" y="511"/>
      <point x="79" y="424"/>
      <point x="79" y="312" type="curve"/>
      <point x="111" y="352" type="line"/>
      <point x="118" y="390"/>
      <point x="162" y="463"/>
      <point x="221" y="463" type="curve" smooth="yes"/>
      <point x="277" y="463"/>
      <point x="282" y="436"/>
      <point x="282" y="310" type="curve" smooth="yes"/>
      <point x="282" y="0" type="line"/>
    </contour>
  </outline>
</glyph>
<glyph name="n" format="1">
  <advance width="600"/>
  <unicode hex="006E"/>
  <outline>
    <contour>
      <point x="144" y="331" type="line"/>
      <point x="147" y="394"/>
      <point x="243" y="478"/>
      <point x="325" y="478" type="curve" smooth="yes"/>
      <point x="397" y="478"/>
      <point x="437" y="459"/>
      <point x="437" y="320" type="curve" smooth="yes"/>
      <point x="437" y="0" type="line"/>
      <point x="470" y="0" type="line"/>
      <point x="470" y="332" type="line" smooth="yes"/>
      <point x="470" y="455"/>
      <point x="439" y="511"/>
      <point x="333" y="511" type="curve" smooth="yes"/>
      <point x="216" y="511"/>
      <point x="114" y="414"/>
      <point x="114" y="312" type="curve"/>
    </contour>
    <contour>
      <point x="111" y="500" type="line"/>
      <point x="111" y="500"/>
      <point x="111" y="436"/>
      <point x="111" y="345" type="curve"/>
      <point x="111" y="0" type="line"/>
      <point x="144" y="0" type="line"/>
      <point x="144" y="402" type="line"/>
      <point x="144" y="402"/>
      <point x="144" y="500"/>
      <point x="144" y="500" type="curve"/>
    </contour>
  </outline>
</glyph>
<glyph name="o" format="1">
  <advance width="600"/>
  <unicode hex="006F"/>
  <outline>
    <contour>
      <point x="412" y="-11"/>
      <point x="506" y="58"/>
      <point x="506" y="251" type="curve" smooth="yes"/>
      <point x="506" y="443"/>
      <point x="412" y="512"/>
      <point x="303" y="512" type="curve" smooth="yes"/>
      <point x="193" y="512"/>
      <point x="99" y="443"/>
      <point x="99" y="251" type="curve" smooth="yes"/>
      <point x="99" y="58"/>
      <point x="193" y="-11"/>
      <point x="303" y="-11" type="curve" smooth="yes"/>
    </contour>
    <contour>
      <point x="226" y="37"/>
      <point x="154" y="85"/>
      <point x="154" y="251" type="curve" smooth="yes"/>
      <point x="154" y="414"/>
      <point x="226" y="464"/>
      <point x="303" y="464" type="curve" smooth="yes"/>
      <point x="379" y="464"/>
      <point x="451" y="414"/>
      <point x="451" y="251" type="curve" smooth="yes"/>
      <point x="451" y="85"/>
      <point x="379" y="37"/>
      <point x="303" y="37" type="curve" smooth="yes"/>
    </contour>
  </outline>
</glyph>
<glyph name="p" format="1">
  <advance width="600"/>
  <unicode hex="0070"/>
  <outline>
    <contour>
      <point x="115" y="-200" type="line"/>
      <point x="166" y="-200" type="line"/>
      <point x="166" y="429" type="line"/>
      <point x="160" y="500" type="line"/>
      <point x="115" y="500" type="line"/>
    </contour>
    <contour>
      <point x="131" y="96"/>
      <point x="193" y="-11"/>
      <point x="331" y="-11" type="curve" smooth="yes"/>
      <point x="450" y="-11"/>
      <point x="522" y="66"/>
      <point x="522" y="249" type="curve"/>
      <point x="471" y="249" type="line"/>
      <point x="471" y="106"/>
      <point x="423" y="37"/>
      <point x="324" y="37" type="curve" smooth="yes"/>
      <point x="214" y="37"/>
      <point x="169" y="135"/>
      <point x="165" y="178" type="curve"/>
      <point x="131" y="208" type="line"/>
    </contour>
    <contour>
      <point x="165" y="310" type="line"/>
      <point x="168" y="353"/>
      <point x="224" y="464"/>
      <point x="334" y="464" type="curve" smooth="yes"/>
      <point x="433" y="464"/>
      <point x="471" y="392"/>
      <point x="471" y="249" type="curve"/>
      <point x="522" y="249" type="line"/>
      <point x="522" y="432"/>
      <point x="460" y="512"/>
      <point x="341" y="512" type="curve" smooth="yes"/>
      <point x="211" y="512"/>
      <point x="131" y="394"/>
      <point x="131" y="290" type="curve"/>
    </contour>
  </outline>
</glyph>
<glyph name="r" format="1">
  <advance width="600"/>
  <unicode hex="0072"/>
  <outline>
    <contour>
      <point x="306" y="326" type="line"/>
      <point x="326" y="397"/>
      <point x="389" y="462"/>
      <point x="478" y="462" type="curve" smooth="yes"/>
      <point x="524" y="462"/>
      <point x="542" y="451"/>
      <point x="544" y="449" type="curve"/>
      <point x="561" y="498" type="line"/>
      <point x="550" y="503"/>
      <point x="523" y="512"/>
      <point x="489" y="512" type="curve" smooth="yes"/>
      <point x="362" y="512"/>
      <point x="274" y="416"/>
      <point x="274" y="304" type="curve"/>
    </contour>
    <contour>
      <point x="490" y="0" type="line"/>
      <point x="490" y="47" type="line"/>
      <point x="103" y="47" type="line"/>
      <point x="103" y="0" type="line"/>
    </contour>
    <contour>
      <point x="307" y="0" type="line"/>
      <point x="307" y="402" type="line"/>
      <point x="301" y="500" type="line"/>
      <point x="256" y="500" type="line"/>
      <point x="256" y="345" type="line"/>
      <point x="256" y="0" type="line"/>
    </contour>
    <contour>
      <point x="283" y="453" type="line"/>
      <point x="283" y="500" type="line"/>
      <point x="103" y="500" type="line"/>
      <point x="103" y="453" type="line"/>
    </contour>
  </outline>
</glyph>
<glyph name="s" format="1">
  <advance width="600"/>
  <unicode hex="0073"/>
  <outline>
    <contour>
      <point x="392" y="-11"/>
      <point x="494" y="39"/>
      <point x="494" y="140" type="curve" smooth="yes"/>
      <point x="494" y="246"/>
      <point x="341" y="268"/>
      <point x="294" y="280" type="curve" smooth="yes"/>
      <point x="260" y="289"/>
      <point x="150" y="305"/>
      <point x="150" y="383" type="curve" smooth="yes"/>
      <point x="150" y="462"/>
      <point x="253" y="479"/>
      <point x="301" y="479" type="curve" smooth="yes"/>
      <point x="349" y="479"/>
      <point x="411" y="467"/>
      <point x="438" y="423" type="curve"/>
      <point x="473" y="445" type="line"/>
      <point x="453" y="481"/>
      <point x="386" y="512"/>
      <point x="301" y="512" type="curve" smooth="yes"/>
      <point x="216" y="512"/>
      <point x="112" y="473"/>
      <point x="112" y="383" type="curve" smooth="yes"/>
      <point x="112" y="285"/>
      <point x="238" y="259"/>
      <point x="285" y="246" type="curve" smooth="yes"/>
      <point x="322" y="236"/>
      <point x="456" y="221"/>
      <point x="456" y="140" type="curve" smooth="yes"/>
      <point x="456" y="51"/>
      <point x="364" y="22"/>
      <point x="294" y="22" type="curve" smooth="yes"/>
      <point x="224" y="22"/>
      <point x="159" y="41"/>
      <point x="129" y="75" type="curve"/>
      <point x="95" y="50" type="line"/>
      <point x="131" y="14"/>
      <point x="207" y="-11"/>
      <point x="292" y="-11" type="curve" smooth="yes"/>
    </contour>
  </outline>
</glyph>
<glyph name="t" format="1">
  <advance width="600"/>
  <unicode hex="0074"/>
  <outline>
    <contour>
      <point x="316" y="18" type="line"/>
      <point x="316" y="680" type="line"/>
      <point x="265" y="680" type="line"/>
      <point x="265" y="11" type="line"/>
    </contour>
    <contour>
      <point x="460" y="0" type="line"/>
      <point x="460" y="47" type="line"/>
      <point x="265" y="47" type="line"/>
      <point x="265" y="0" type="line"/>
    </contour>
    <contour>
      <point x="503" y="453" type="line"/>
      <point x="503" y="500" type="line"/>
      <point x="128" y="500" type="line"/>
      <point x="128" y="453" type="line"/>
    </contour>
  </outline>
</glyph>
<glyph name="u" format="1">
  <advance width="600"/>
  <unicode hex="0075"/>
  <outline>
    <contour>
      <point x="400" y="-10"/>
      <point x="484" y="77"/>
      <point x="484" y="189" type="curve"/>
      <point x="448" y="149" type="line"/>
      <point x="435" y="116"/>
      <point x="387" y="38"/>
      <point x="284" y="38" type="curve" smooth="yes"/>
      <point x="178" y="38"/>
      <point x="163" y="102"/>
      <point x="163" y="221" type="curve" smooth="yes"/>
      <point x="163" y="501" type="line"/>
      <point x="112" y="501" type="line"/>
      <point x="112" y="198" type="line" smooth="yes"/>
      <point x="112" y="35"/>
      <point x="178" y="-10"/>
      <point x="273" y="-10" type="curve" smooth="yes"/>
    </contour>
    <contour>
      <point x="500" y="0" type="line" smooth="yes"/>
      <point x="500" y="0"/>
      <point x="499" y="101"/>
      <point x="499" y="101" type="curve"/>
      <point x="499" y="501" type="line"/>
      <point x="448" y="501" type="line"/>
      <point x="448" y="99" type="line"/>
      <point x="448" y="99"/>
      <point x="451" y="0"/>
      <point x="451" y="0" type="curve"/>
    </contour>
  </outline>
</glyph>
<glyph name="v" format="1">
  <advance width="600"/>
  <unicode hex="0076"/>
  <outline>
    <contour>
      <point x="119" y="500" type="line"/>
      <point x="241" y="0" type="line"/>
      <point x="291" y="0" type="line"/>
      <point x="174" y="500" type="line"/>
    </contour>
    <contour>
      <point x="430" y="500" type="line"/>
      <point x="313" y="0" type="line"/>
      <point x="363" y="0" type="line"/>
      <point x="485" y="500" type="line"/>
    </contour>
    <contour>
      <point x="351" y="0" type="line"/>
      <point x="351" y="47" type="line"/>
      <point x="253" y="47" type="line"/>
      <point x="253" y="0" type="line"/>
    </contour>
  </outline>
</glyph>
<glyph name="w" format="1">
  <advance width="600"/>
  <unicode hex="0077"/>
  <outline>
    <contour>
      <point x="129" y="0" type="line"/>
      <point x="175" y="0" type="line"/>
      <point x="116" y="500" type="line"/>
      <point x="66" y="500" type="line"/>
    </contour>
    <contour>
      <point x="421" y="0" type="line"/>
      <point x="467" y="0" type="line"/>
      <point x="530" y="500" type="line"/>
      <point x="480" y="500" type="line"/>
    </contour>
    <contour>
      <point x="318" y="500" type="line"/>
      <point x="270" y="500" type="line"/>
      <point x="157" y="0" type="line"/>
      <point x="199" y="0" type="line"/>
    </contour>
    <contour>
      <point x="439" y="0" type="line"/>
      <point x="326" y="500" type="line"/>
      <point x="278" y="500" type="line"/>
      <point x="397" y="0" type="line"/>
    </contour>
  </outline>
</glyph>
<glyph name="x" format="1">
  <advance width="600"/>
  <unicode hex="0078"/>
  <outline>
    <contour>
      <point x="316" y="263" type="line"/>
      <point x="339" y="240" type="line"/>
      <point x="507" y="500" type="line"/>
      <point x="467" y="500" type="line"/>
    </contour>
    <contour>
      <point x="274" y="237" type="line"/>
      <point x="331" y="237" type="line"/>
      <point x="331" y="269" type="line"/>
      <point x="274" y="269" type="line"/>
    </contour>
    <contour>
      <point x="507" y="0" type="line"/>
      <point x="335" y="273" type="line"/>
      <point x="307" y="258" type="line"/>
      <point x="467" y="0" type="line"/>
    </contour>
    <contour>
      <point x="259" y="269" type="line"/>
      <point x="259" y="237" type="line"/>
      <point x="316" y="237" type="line"/>
      <point x="316" y="269" type="line"/>
    </contour>
    <contour>
      <point x="83" y="500" type="line"/>
      <point x="251" y="240" type="line"/>
      <point x="274" y="263" type="line"/>
      <point x="123" y="500" type="line"/>
    </contour>
    <contour>
      <point x="283" y="258" type="line"/>
      <point x="255" y="273" type="line"/>
      <point x="83" y="0" type="line"/>
      <point x="123" y="0" type="line"/>
    </contour>
  </outline>
</glyph>
<glyph name="y" format="1">
  <advance width="600"/>
  <unicode hex="0079"/>
  <outline>
    <contour>
      <point x="102" y="500" type="line"/>
      <point x="282" y="0" type="line"/>
      <point x="303" y="43" type="line"/>
      <point x="142" y="500" type="line"/>
    </contour>
    <contour>
      <point x="443" y="500" type="line"/>
      <point x="292" y="41" type="line"/>
      <point x="311" y="0" type="line"/>
      <point x="483" y="500" type="line"/>
    </contour>
    <contour>
      <point x="100" y="-189" type="line"/>
      <point x="105" y="-190"/>
      <point x="119" y="-192"/>
      <point x="132" y="-192" type="curve"/>
      <point x="203" y="-192"/>
      <point x="267" y="-118"/>
      <point x="311" y="0" type="curve"/>
      <point x="293" y="43" type="line"/>
      <point x="283" y="19" type="line"/>
      <point x="248" y="-83"/>
      <point x="196" y="-159"/>
      <point x="131" y="-159" type="curve"/>
      <point x="119" y="-159"/>
      <point x="109" y="-157"/>
      <point x="109" y="-157" type="curve"/>
    </contour>
  </outline>
</glyph>
<glyph name="z" format="1">
  <advance width="600"/>
  <unicode hex="007A"/>
  <outline>
    <contour>
      <point x="182" y="47" type="line"/>
      <point x="494" y="453" type="line"/>
      <point x="434" y="453" type="line"/>
      <point x="120" y="47" type="line"/>
    </contour>
    <contour>
      <point x="128" y="453" type="line"/>
      <point x="494" y="453" type="line"/>
      <point x="494" y="500" type="line"/>
      <point x="128" y="500" type="line"/>
    </contour>
    <contour>
      <point x="120" y="0" type="line"/>
      <point x="499" y="0" type="line"/>
      <point x="499" y="47" type="line"/>
      <point x="120" y="47" type="line"/>
    </contour>
  </outline>
</glyph>
<glyph name="braceleft" format="1">
  <advance width="600"/>
  <unicode hex="007B"/>
  <outline>
    <contour>
      <point x="223" y="315" type="line" smooth="yes"/>
      <point x="239" y="315"/>
      <point x="314" y="328"/>
      <point x="314" y="446" type="curve" smooth="yes"/>
      <point x="314" y="616" type="line" smooth="yes"/>
      <point x="314" y="732"/>
      <point x="372" y="775"/>
      <point x="459" y="775" type="curve" smooth="yes"/>
      <point x="467" y="775" type="line"/>
      <point x="467" y="807" type="line"/>
      <point x="452" y="807" type="line" smooth="yes"/>
      <point x="336" y="807"/>
      <point x="281" y="743"/>
      <point x="281" y="625" type="curve" smooth="yes"/>
      <point x="281" y="476" type="line" smooth="yes"/>
      <point x="281" y="390"/>
      <point x="263" y="333"/>
      <point x="186" y="333" type="curve" smooth="yes"/>
      <point x="185" y="333" type="line"/>
      <point x="185" y="315" type="line"/>
    </contour>
    <contour>
      <point x="185" y="300" type="line"/>
      <point x="186" y="300" type="line" smooth="yes"/>
      <point x="263" y="300"/>
      <point x="281" y="243"/>
      <point x="281" y="157" type="curve" smooth="yes"/>
      <point x="281" y="8" type="line" smooth="yes"/>
      <point x="281" y="-110"/>
      <point x="336" y="-174"/>
      <point x="452" y="-174" type="curve" smooth="yes"/>
      <point x="467" y="-174" type="line"/>
      <point x="467" y="-142" type="line"/>
      <point x="459" y="-142" type="line" smooth="yes"/>
      <point x="372" y="-142"/>
      <point x="314" y="-99"/>
      <point x="314" y="17" type="curve" smooth="yes"/>
      <point x="314" y="187" type="line" smooth="yes"/>
      <point x="314" y="305"/>
      <point x="239" y="318"/>
      <point x="223" y="318" type="curve" smooth="yes"/>
      <point x="185" y="318" type="line"/>
    </contour>
  </outline>
</glyph>
<glyph name="bar" format="1">
  <advance width="600"/>
  <unicode hex="007C"/>
  <outline>
    <contour>
      <point x="274" y="-130" type="line"/>
      <point x="321" y="-130" type="line"/>
      <point x="321" y="800" type="line"/>
      <point x="274" y="800" type="line"/>
    </contour>
  </outline>
</glyph>
<glyph name="cent" format="1">
  <advance width="600"/>
  <unicode hex="00A2"/>
  <outline>
    <contour>
      <point x="385" y="85"/>
      <point x="455" y="116"/>
      <point x="500" y="188" type="curve"/>
      <point x="450" y="215" type="line"/>
      <point x="425" y="166"/>
      <point x="376" y="133"/>
      <point x="304" y="133" type="curve" smooth="yes"/>
      <point x="209" y="133"/>
      <point x="132" y="199"/>
      <point x="132" y="347" type="curve" smooth="yes"/>
      <point x="132" y="497"/>
      <point x="209" y="560"/>
      <point x="304" y="560" type="curve" smooth="yes"/>
      <point x="379" y="560"/>
      <point x="418" y="523"/>
      <point x="448" y="469" type="curve"/>
      <point x="497" y="495" type="line"/>
      <point x="450" y="577"/>
      <point x="384" y="608"/>
      <point x="307" y="608" type="curve" smooth="yes"/>
      <point x="184" y="608"/>
      <point x="76" y="540"/>
      <point x="76" y="347" type="curve" smooth="yes"/>
      <point x="76" y="156"/>
      <point x="184" y="85"/>
      <point x="307" y="85" type="curve" smooth="yes"/>
    </contour>
    <contour>
      <point x="322" y="0" type="line"/>
      <point x="322" y="113" type="line"/>
      <point x="276" y="113" type="line"/>
      <point x="276" y="0" type="line"/>
    </contour>
    <contour>
      <point x="322" y="580" type="line"/>
      <point x="322" y="700" type="line"/>
      <point x="276" y="700" type="line"/>
      <point x="276" y="580" type="line"/>
    </contour>
  </outline>
</glyph>
<glyph name="sterling" format="1">
  <advance width="600"/>
  <unicode hex="00A3"/>
  <outline>
    <contour>
      <point x="216" y="62"/>
      <point x="259" y="180"/>
      <point x="244" y="291" type="curve" smooth="yes"/>
      <point x="236" y="353"/>
      <point x="198" y="440"/>
      <point x="198" y="505" type="curve" smooth="yes"/>
      <point x="198" y="625"/>
      <point x="277" y="659"/>
      <point x="349" y="659" type="curve" smooth="yes"/>
      <point x="424" y="659"/>
      <point x="459" y="623"/>
      <point x="482" y="586" type="curve"/>
      <point x="523" y="612" type="line"/>
      <point x="495" y="663"/>
      <point x="442" y="706"/>
      <point x="349" y="706" type="curve" smooth="yes"/>
      <point x="224" y="706"/>
      <point x="144" y="626"/>
      <point x="144" y="505" type="curve" smooth="yes"/>
      <point x="144" y="426"/>
      <point x="186" y="344"/>
      <point x="195" y="283" type="curve" smooth="yes"/>
      <point x="210" y="190"/>
      <point x="165" y="80"/>
      <point x="117" y="42" type="curve"/>
      <point x="149" y="23" type="line"/>
    </contour>
    <contour>
      <point x="147" y="-5"/>
      <point x="212" y="14"/>
      <point x="261" y="13" type="curve" smooth="yes"/>
      <point x="315" y="12"/>
      <point x="357" y="-11"/>
      <point x="423" y="-13" type="curve" smooth="yes"/>
      <point x="480" y="-15"/>
      <point x="517" y="-2"/>
      <point x="517" y="-2" type="curve"/>
      <point x="503" y="45" type="line"/>
      <point x="503" y="45"/>
      <point x="471" y="29"/>
      <point x="423" y="31" type="curve" smooth="yes"/>
      <point x="367" y="34"/>
      <point x="345" y="54"/>
      <point x="280" y="56" type="curve" smooth="yes"/>
      <point x="222" y="58"/>
      <point x="177" y="43"/>
      <point x="150" y="28" type="curve"/>
      <point x="150" y="28"/>
      <point x="120" y="42"/>
      <point x="117" y="42" type="curve"/>
      <point x="136" y="-8" type="line"/>
    </contour>
    <contour>
      <point x="438" y="325" type="line"/>
      <point x="438" y="371" type="line"/>
      <point x="63" y="371" type="line"/>
      <point x="63" y="325" type="line"/>
    </contour>
  </outline>
</glyph>
<glyph name="currency" format="1">
  <advance width="600"/>
  <unicode hex="00A4"/>
  <outline>
    <contour>
      <point x="408" y="169"/>
      <point x="492" y="228"/>
      <point x="492" y="370" type="curve" smooth="yes"/>
      <point x="492" y="512"/>
      <point x="408" y="570"/>
      <point x="303" y="570" type="curve" smooth="yes"/>
      <point x="197" y="570"/>
      <point x="113" y="512"/>
      <point x="113" y="370" type="curve" smooth="yes"/>
      <point x="113" y="228"/>
      <point x="197" y="169"/>
      <point x="303" y="169" type="curve" smooth="yes"/>
    </contour>
    <contour>
      <point x="181" y="214" type="line"/>
      <point x="148" y="247" type="line"/>
      <point x="71" y="172" type="line"/>
      <point x="104" y="137" type="line"/>
    </contour>
    <contour>
      <point x="232" y="216"/>
      <point x="163" y="250"/>
      <point x="163" y="370" type="curve" smooth="yes"/>
      <point x="163" y="489"/>
      <point x="232" y="523"/>
      <point x="303" y="523" type="curve" smooth="yes"/>
      <point x="373" y="523"/>
      <point x="442" y="489"/>
      <point x="442" y="370" type="curve" smooth="yes"/>
      <point x="442" y="250"/>
      <point x="373" y="216"/>
      <point x="303" y="216" type="curve" smooth="yes"/>
    </contour>
    <contour>
      <point x="536" y="173" type="line"/>
      <point x="459" y="247" type="line"/>
      <point x="426" y="214" type="line"/>
      <point x="503" y="138" type="line"/>
    </contour>
    <contour>
      <point x="181" y="528" type="line"/>
      <point x="104" y="604" type="line"/>
      <point x="71" y="569" type="line"/>
      <point x="148" y="495" type="line"/>
    </contour>
    <contour>
      <point x="536" y="569" type="line"/>
      <point x="503" y="603" type="line"/>
      <point x="426" y="527" type="line"/>
      <point x="459" y="494" type="line"/>
    </contour>
  </outline>
</glyph>
<glyph name="yen" format="1">
  <advance width="600"/>
  <unicode hex="00A5"/>
  <outline>
    <contour>
      <point x="300" y="364" type="line"/>
      <point x="326" y="297" type="line"/>
      <point x="494" y="700" type="line"/>
      <point x="436" y="700" type="line"/>
    </contour>
    <contour>
      <point x="106" y="700" type="line"/>
      <point x="277" y="292" type="line"/>
      <point x="300" y="364" type="line"/>
      <point x="164" y="700" type="line"/>
    </contour>
    <contour>
      <point x="326" y="0" type="line"/>
      <point x="326" y="364" type="line"/>
      <point x="275" y="364" type="line"/>
      <point x="275" y="0" type="line"/>
    </contour>
    <contour>
      <point x="130" y="282" type="line"/>
      <point x="471" y="282" type="line"/>
      <point x="471" y="329" type="line"/>
      <point x="130" y="329" type="line"/>
    </contour>
    <contour>
      <point x="130" y="149" type="line"/>
      <point x="471" y="149" type="line"/>
      <point x="471" y="196" type="line"/>
      <point x="130" y="196" type="line"/>
    </contour>
  </outline>
</glyph>
<glyph name="brokenbar" format="1">
  <advance width="600"/>
  <unicode hex="00A6"/>
  <outline>
    <contour>
      <point x="273" y="213" type="line"/>
      <point x="273" y="-130" type="line"/>
      <point x="322" y="-130" type="line"/>
      <point x="322" y="213" type="line"/>
    </contour>
    <contour>
      <point x="322" y="453" type="line"/>
      <point x="322" y="800" type="line"/>
      <point x="273" y="800" type="line"/>
      <point x="273" y="453" type="line"/>
    </contour>
  </outline>
</glyph>
<glyph name="section" format="1">
  <advance width="600"/>
  <unicode hex="00A7"/>
  <outline>
    <contour>
      <point x="290" y="443" type="line"/>
      <point x="207" y="431"/>
      <point x="110" y="401"/>
      <point x="110" y="315" type="curve" smooth="yes"/>
      <point x="110" y="209"/>
      <point x="220" y="184"/>
      <point x="291" y="161" type="curve" smooth="yes"/>
      <point x="351" y="142"/>
      <point x="451" y="112"/>
      <point x="451" y="42" type="curve" smooth="yes"/>
      <point x="451" y="-37"/>
      <point x="375" y="-65"/>
      <point x="291" y="-65" type="curve" smooth="yes"/>
      <point x="207" y="-65"/>
      <point x="144" y="-37"/>
      <point x="123" y="9" type="curve"/>
      <point x="78" y="-15" type="line"/>
      <point x="103" y="-72"/>
      <point x="185" y="-109"/>
      <point x="291" y="-109" type="curve" smooth="yes"/>
      <point x="406" y="-109"/>
      <point x="501" y="-65"/>
      <point x="501" y="44" type="curve" smooth="yes"/>
      <point x="501" y="157"/>
      <point x="355" y="187"/>
      <point x="297" y="205" type="curve" smooth="yes"/>
      <point x="243" y="222"/>
      <point x="160" y="247"/>
      <point x="160" y="315" type="curve" smooth="yes"/>
      <point x="160" y="384"/>
      <point x="263" y="408"/>
      <point x="315" y="408" type="curve" smooth="yes"/>
      <point x="324" y="408"/>
      <point x="323" y="408"/>
      <point x="332" y="407" type="curve"/>
    </contour>
    <contour>
      <point x="350" y="152" type="line"/>
      <point x="390" y="160"/>
      <point x="501" y="190"/>
      <point x="501" y="288" type="curve" smooth="yes"/>
      <point x="501" y="399"/>
      <point x="354" y="432"/>
      <point x="297" y="450" type="curve" smooth="yes"/>
      <point x="250" y="466"/>
      <point x="170" y="493"/>
      <point x="170" y="563" type="curve" smooth="yes"/>
      <point x="170" y="640"/>
      <point x="247" y="662"/>
      <point x="310" y="662" type="curve" smooth="yes"/>
      <point x="385" y="662"/>
      <point x="438" y="638"/>
      <point x="459" y="589" type="curve"/>
      <point x="505" y="611" type="line"/>
      <point x="480" y="669"/>
      <point x="406" y="706"/>
      <point x="310" y="706" type="curve" smooth="yes"/>
      <point x="215" y="706"/>
      <point x="120" y="663"/>
      <point x="120" y="562" type="curve" smooth="yes"/>
      <point x="120" y="460"/>
      <point x="233" y="423"/>
      <point x="291" y="406" type="curve" smooth="yes"/>
      <point x="350" y="388"/>
      <point x="452" y="357"/>
      <point x="452" y="288" type="curve" smooth="yes"/>
      <point x="452" y="222"/>
      <point x="365" y="186"/>
      <point x="304" y="179" type="curve"/>
    </contour>
  </outline>
</glyph>
<glyph name="dieresis" format="1">
  <advance width="600"/>
  <unicode hex="00A8"/>
  <outline>
    <contour>
      <point x="233" y="649"/>
      <point x="255" y="671"/>
      <point x="255" y="699" type="curve" smooth="yes"/>
      <point x="255" y="728"/>
      <point x="233" y="750"/>
      <point x="205" y="750" type="curve" smooth="yes"/>
      <point x="177" y="750"/>
      <point x="154" y="728"/>
      <point x="154" y="699" type="curve" smooth="yes"/>
      <point x="154" y="671"/>
      <point x="177" y="649"/>
      <point x="205" y="649" type="curve" smooth="yes"/>
    </contour>
    <contour>
      <point x="429" y="649"/>
      <point x="451" y="671"/>
      <point x="451" y="699" type="curve" smooth="yes"/>
      <point x="451" y="728"/>
      <point x="429" y="750"/>
      <point x="401" y="750" type="curve" smooth="yes"/>
      <point x="373" y="750"/>
      <point x="350" y="728"/>
      <point x="350" y="699" type="curve" smooth="yes"/>
      <point x="350" y="671"/>
      <point x="373" y="649"/>
      <point x="401" y="649" type="curve" smooth="yes"/>
    </contour>
  </outline>
</glyph>
<glyph name="copyright" format="1">
  <advance width="600"/>
  <unicode hex="00A9"/>
  <outline>
    <contour>
      <point x="426" y="57"/>
      <point x="554" y="128"/>
      <point x="554" y="349" type="curve" smooth="yes"/>
      <point x="554" y="569"/>
      <point x="426" y="640"/>
      <point x="297" y="640" type="curve" smooth="yes"/>
      <point x="167" y="640"/>
      <point x="39" y="569"/>
      <point x="39" y="349" type="curve" smooth="yes"/>
      <point x="39" y="128"/>
      <point x="167" y="57"/>
      <point x="297" y="57" type="curve" smooth="yes"/>
    </contour>
    <contour>
      <point x="166" y="97"/>
      <point x="81" y="175"/>
      <point x="81" y="349" type="curve" smooth="yes"/>
      <point x="81" y="522"/>
      <point x="166" y="600"/>
      <point x="297" y="600" type="curve" smooth="yes"/>
      <point x="427" y="600"/>
      <point x="511" y="522"/>
      <point x="511" y="349" type="curve" smooth="yes"/>
      <point x="511" y="175"/>
      <point x="427" y="97"/>
      <point x="297" y="97" type="curve" smooth="yes"/>
    </contour>
    <contour>
      <point x="382" y="268" type="line"/>
      <point x="368" y="244"/>
      <point x="341" y="228"/>
      <point x="307" y="228" type="curve" smooth="yes"/>
      <point x="244" y="228"/>
      <point x="207" y="273"/>
      <point x="207" y="348" type="curve" smooth="yes"/>
      <point x="207" y="424"/>
      <point x="244" y="469"/>
      <point x="307" y="469" type="curve" smooth="yes"/>
      <point x="340" y="469"/>
      <point x="372" y="451"/>
      <point x="385" y="421" type="curve"/>
      <point x="418" y="439" type="line"/>
      <point x="404" y="470"/>
      <point x="369" y="502"/>
      <point x="309" y="502" type="curve" smooth="yes"/>
      <point x="232" y="502"/>
      <point x="167" y="462"/>
      <point x="167" y="348" type="curve" smooth="yes"/>
      <point x="167" y="235"/>
      <point x="232" y="194"/>
      <point x="309" y="194" type="curve" smooth="yes"/>
      <point x="357" y="194"/>
      <point x="398" y="217"/>
      <point x="416" y="250" type="curve"/>
    </contour>
  </outline>
</glyph>
<glyph name="registered" format="1">
  <advance width="600"/>
  <unicode hex="00AE"/>
  <outline>
    <contour>
      <point x="433" y="170"/>
      <point x="561" y="241"/>
      <point x="561" y="439" type="curve" smooth="yes"/>
      <point x="561" y="636"/>
      <point x="433" y="707"/>
      <point x="297" y="707" type="curve" smooth="yes"/>
      <point x="160" y="707"/>
      <point x="32" y="636"/>
      <point x="32" y="439" type="curve" smooth="yes"/>
      <point x="32" y="241"/>
      <point x="160" y="170"/>
      <point x="297" y="170" type="curve" smooth="yes"/>
    </contour>
    <contour>
      <point x="156" y="210"/>
      <point x="74" y="288"/>
      <point x="74" y="439" type="curve" smooth="yes"/>
      <point x="74" y="589"/>
      <point x="159" y="667"/>
      <point x="297" y="667" type="curve" smooth="yes"/>
      <point x="434" y="667"/>
      <point x="518" y="589"/>
      <point x="518" y="439" type="curve" smooth="yes"/>
      <point x="518" y="288"/>
      <point x="434" y="210"/>
      <point x="297" y="210" type="curve" smooth="yes"/>
    </contour>
    <contour>
      <point x="311" y="552" type="line" smooth="yes"/>
      <point x="345" y="552"/>
      <point x="369" y="538"/>
      <point x="369" y="502" type="curve" smooth="yes"/>
      <point x="369" y="463"/>
      <point x="345" y="450"/>
      <point x="311" y="450" type="curve" smooth="yes"/>
      <point x="242" y="450" type="line"/>
      <point x="242" y="552" type="line"/>
    </contour>
    <contour>
      <point x="338" y="417"/>
      <point x="403" y="426"/>
      <point x="403" y="501" type="curve" smooth="yes"/>
      <point x="403" y="575"/>
      <point x="348" y="585"/>
      <point x="301" y="585" type="curve" smooth="yes"/>
      <point x="208" y="585" type="line"/>
      <point x="208" y="294" type="line"/>
      <point x="242" y="294" type="line"/>
      <point x="242" y="417" type="line"/>
      <point x="298" y="417" type="line" smooth="yes"/>
    </contour>
    <contour>
      <point x="403" y="294" type="line"/>
      <point x="339" y="427" type="line"/>
      <point x="304" y="424" type="line"/>
      <point x="365" y="294" type="line"/>
    </contour>
  </outline>
</glyph>
<glyph name="macron" format="1">
  <advance width="600"/>
  <unicode hex="00AF"/>
  <outline>
    <contour>
      <point x="150" y="683" type="line"/>
      <point x="449" y="683" type="line"/>
      <point x="449" y="716" type="line"/>
      <point x="150" y="716" type="line"/>
    </contour>
  </outline>
</glyph>
<glyph name="degree" format="1">
  <advance width="600"/>
  <unicode hex="00B0"/>
  <outline>
    <contour>
      <point x="320" y="527"/>
      <point x="372" y="579"/>
      <point x="372" y="644" type="curve" smooth="yes"/>
      <point x="372" y="708"/>
      <point x="320" y="760"/>
      <point x="256" y="760" type="curve" smooth="yes"/>
      <point x="191" y="760"/>
      <point x="139" y="708"/>
      <point x="139" y="644" type="curve" smooth="yes"/>
      <point x="139" y="579"/>
      <point x="191" y="527"/>
      <point x="256" y="527" type="curve" smooth="yes"/>
    </contour>
    <contour>
      <point x="214" y="570"/>
      <point x="182" y="602"/>
      <point x="182" y="644" type="curve" smooth="yes"/>
      <point x="182" y="685"/>
      <point x="214" y="717"/>
      <point x="256" y="717" type="curve" smooth="yes"/>
      <point x="297" y="717"/>
      <point x="329" y="685"/>
      <point x="329" y="644" type="curve" smooth="yes"/>
      <point x="329" y="602"/>
      <point x="297" y="570"/>
      <point x="256" y="570" type="curve" smooth="yes"/>
    </contour>
  </outline>
</glyph>
<glyph name="plusminus" format="1">
  <advance width="600"/>
  <unicode hex="00B1"/>
  <outline>
    <contour>
      <point x="99" y="355" type="line"/>
      <point x="506" y="355" type="line"/>
      <point x="506" y="391" type="line"/>
      <point x="99" y="391" type="line"/>
    </contour>
    <contour>
      <point x="328" y="219" type="line"/>
      <point x="328" y="526" type="line"/>
      <point x="278" y="526" type="line"/>
      <point x="278" y="219" type="line"/>
    </contour>
    <contour>
      <point x="99" y="107" type="line"/>
      <point x="506" y="107" type="line"/>
      <point x="506" y="143" type="line"/>
      <point x="99" y="143" type="line"/>
    </contour>
  </outline>
</glyph>
<glyph name="acute" format="1">
  <advance width="600"/>
  <unicode hex="00B4"/>
  <outline>
    <contour>
      <point x="260" y="609" type="line"/>
      <point x="395" y="743" type="line"/>
      <point x="318" y="743" type="line"/>
      <point x="210" y="609" type="line"/>
    </contour>
  </outline>
</glyph>
<glyph name="paragraph" format="1">
  <advance width="600"/>
  <unicode hex="00B6"/>
  <outline>
    <contour>
      <point x="278" y="334" type="line"/>
      <point x="278" y="-120" type="line"/>
      <point x="326" y="-120" type="line"/>
      <point x="326" y="700" type="line"/>
      <point x="268" y="700" type="line" smooth="yes"/>
      <point x="174" y="700"/>
      <point x="60" y="645"/>
      <point x="60" y="521" type="curve" smooth="yes"/>
      <point x="60" y="387"/>
      <point x="174" y="334"/>
      <point x="248" y="334" type="curve" smooth="yes"/>
    </contour>
    <contour>
      <point x="495" y="-120" type="line"/>
      <point x="495" y="700" type="line"/>
      <point x="447" y="700" type="line"/>
      <point x="447" y="-120" type="line"/>
    </contour>
    <contour>
      <point x="287" y="653" type="line"/>
      <point x="477" y="653" type="line"/>
      <point x="477" y="700" type="line"/>
      <point x="287" y="700" type="line"/>
    </contour>
  </outline>
</glyph>
<glyph name="cedilla" format="1">
  <advance width="600"/>
  <unicode hex="00B8"/>
  <outline>
    <contour>
      <point x="230" y="-79" type="line"/>
      <point x="268" y="-90" type="line"/>
      <point x="302" y="0" type="line"/>
      <point x="257" y="0" type="line"/>
    </contour>
    <contour>
      <point x="289" y="-74"/>
      <point x="356" y="-58"/>
      <point x="357" y="-102" type="curve" smooth="yes"/>
      <point x="358" y="-150"/>
      <point x="282" y="-170"/>
      <point x="205" y="-151" type="curve"/>
      <point x="190" y="-192" type="line"/>
      <point x="294" y="-218"/>
      <point x="412" y="-186"/>
      <point x="412" y="-95" type="curve" smooth="yes"/>
      <point x="412" y="-27"/>
      <point x="315" y="-29"/>
      <point x="281" y="-55" type="curve"/>
      <point x="268" y="-90" type="line"/>
    </contour>
  </outline>
</glyph>
<glyph name="AE" format="1">
  <advance width="600"/>
  <unicode hex="00C6"/>
  <outline>
    <contour>
      <point x="357" y="0" type="line"/>
      <point x="357" y="700" type="line"/>
      <point x="306" y="700" type="line"/>
      <point x="306" y="0" type="line"/>
    </contour>
    <contour>
      <point x="347" y="0" type="line"/>
      <point x="579" y="0" type="line"/>
      <point x="579" y="47" type="line"/>
      <point x="347" y="47" type="line"/>
    </contour>
    <contour>
      <point x="347" y="321" type="line"/>
      <point x="525" y="321" type="line"/>
      <point x="525" y="367" type="line"/>
      <point x="347" y="367" type="line"/>
    </contour>
    <contour>
      <point x="347" y="653" type="line"/>
      <point x="579" y="653" type="line"/>
      <point x="579" y="700" type="line"/>
      <point x="347" y="700" type="line"/>
    </contour>
    <contour>
      <point x="20" y="0" type="line"/>
      <point x="73" y="0" type="line"/>
      <point x="287" y="700" type="line"/>
      <point x="234" y="700" type="line"/>
    </contour>
    <contour>
      <point x="229" y="653" type="line"/>
      <point x="325" y="653" type="line"/>
      <point x="343" y="700" type="line"/>
      <point x="246" y="700" type="line"/>
    </contour>
    <contour>
      <point x="109" y="238" type="line"/>
      <point x="335" y="238" type="line"/>
      <point x="343" y="285" type="line"/>
      <point x="126" y="285" type="line"/>
    </contour>
  </outline>
</glyph>
<glyph name="Thorn" format="1">
  <advance width="600"/>
  <unicode hex="00DE"/>
  <outline>
    <contour>
      <point x="164" y="700" type="line"/>
      <point x="131" y="700" type="line"/>
      <point x="131" y="0" type="line"/>
      <point x="164" y="0" type="line"/>
    </contour>
    <contour>
      <point x="140" y="128" type="line"/>
      <point x="282" y="128" type="line" smooth="yes"/>
      <point x="366" y="128"/>
      <point x="480" y="146"/>
      <point x="480" y="367" type="curve" smooth="yes"/>
      <point x="480" y="578"/>
      <point x="366" y="588"/>
      <point x="282" y="588" type="curve" smooth="yes"/>
      <point x="138" y="588" type="line"/>
      <point x="138" y="556" type="line"/>
      <point x="295" y="556" type="line"/>
      <point x="360" y="556"/>
      <point x="446" y="551"/>
      <point x="446" y="367" type="curve" smooth="yes"/>
      <point x="446" y="173"/>
      <point x="360" y="160"/>
      <point x="295" y="160" type="curve" smooth="yes"/>
      <point x="140" y="160" type="line"/>
    </contour>
  </outline>
</glyph>
<glyph name="germandbls" format="1">
  <advance width="600"/>
  <unicode hex="00DF"/>
  <outline>
    <contour>
      <point x="133" y="0" type="line"/>
      <point x="133" y="512" type="line"/>
      <point x="100" y="523" type="line"/>
      <point x="100" y="0" type="line"/>
    </contour>
    <contour>
      <point x="223" y="2" type="line"/>
      <point x="253" y="-5"/>
      <point x="284" y="-11"/>
      <point x="323" y="-11" type="curve" smooth="yes"/>
      <point x="444" y="-11"/>
      <point x="539" y="48"/>
      <point x="539" y="197" type="curve"/>
      <point x="501" y="197" type="line"/>
      <point x="501" y="52"/>
      <point x="403" y="22"/>
      <point x="323" y="22" type="curve" smooth="yes"/>
      <point x="286" y="22"/>
      <point x="250" y="30"/>
      <point x="232" y="35" type="curve"/>
    </contour>
    <contour>
      <point x="489" y="552" type="line"/>
      <point x="489" y="670"/>
      <point x="405" y="726"/>
      <point x="297" y="726" type="curve" smooth="yes"/>
      <point x="189" y="726"/>
      <point x="100" y="662"/>
      <point x="100" y="523" type="curve"/>
      <point x="133" y="512" type="line"/>
      <point x="133" y="668"/>
      <point x="233" y="693"/>
      <point x="297" y="693" type="curve" smooth="yes"/>
      <point x="354" y="693"/>
      <point x="450" y="676"/>
      <point x="450" y="552" type="curve"/>
    </contour>
    <contour>
      <point x="450" y="552" type="line"/>
      <point x="450" y="452"/>
      <point x="349" y="464"/>
      <point x="349" y="391" type="curve" smooth="yes"/>
      <point x="349" y="318"/>
      <point x="501" y="332"/>
      <point x="501" y="197" type="curve"/>
      <point x="539" y="197" type="line"/>
      <point x="539" y="345"/>
      <point x="385" y="354"/>
      <point x="385" y="391" type="curve" smooth="yes"/>
      <point x="385" y="428"/>
      <point x="489" y="450"/>
      <point x="489" y="552" type="curve"/>
    </contour>
  </outline>
</glyph>
<glyph name="ae" format="1">
  <advance width="600"/>
  <unicode hex="00E6"/>
  <outline>
    <contour>
      <point x="303" y="-11"/>
      <point x="318" y="76"/>
      <point x="318" y="76" type="curve"/>
      <point x="292" y="119" type="line"/>
      <point x="285" y="85"/>
      <point x="255" y="36"/>
      <point x="188" y="36" type="curve"/>
      <point x="122" y="36"/>
      <point x="77" y="61"/>
      <point x="77" y="146" type="curve"/>
      <point x="26" y="146" type="line"/>
      <point x="26" y="37"/>
      <point x="82" y="-11"/>
      <point x="181" y="-11" type="curve"/>
    </contour>
    <contour>
      <point x="77" y="146" type="line"/>
      <point x="77" y="234"/>
      <point x="153" y="242"/>
      <point x="224" y="242" type="curve"/>
      <point x="205" y="289" type="line"/>
      <point x="108" y="289"/>
      <point x="26" y="257"/>
      <point x="26" y="146" type="curve"/>
    </contour>
    <contour>
      <point x="299" y="242" type="line"/>
      <point x="299" y="289" type="line"/>
      <point x="205" y="289" type="line"/>
      <point x="224" y="242" type="line"/>
    </contour>
    <contour>
      <point x="147" y="413" type="line"/>
      <point x="161" y="452"/>
      <point x="163" y="489"/>
      <point x="180" y="489" type="curve"/>
      <point x="209" y="489"/>
      <point x="218" y="426"/>
      <point x="205" y="374" type="curve"/>
      <point x="244" y="365" type="line"/>
      <point x="252" y="436"/>
      <point x="225" y="487"/>
      <point x="179" y="487" type="curve"/>
      <point x="141" y="487"/>
      <point x="115" y="457"/>
      <point x="104" y="430" type="curve"/>
    </contour>
    <contour>
      <point x="328" y="241" type="line"/>
      <point x="328" y="361" type="line"/>
      <point x="277" y="341" type="line"/>
      <point x="277" y="243" type="line"/>
    </contour>
    <contour>
      <point x="534" y="117" type="line"/>
      <point x="523" y="87"/>
      <point x="500" y="37"/>
      <point x="441" y="37" type="curve" smooth="yes"/>
      <point x="353" y="37"/>
      <point x="330" y="112"/>
      <point x="330" y="251" type="curve" smooth="yes"/>
      <point x="330" y="394"/>
      <point x="360" y="464"/>
      <point x="437" y="464" type="curve" smooth="yes"/>
      <point x="522" y="464"/>
      <point x="524" y="363"/>
      <point x="524" y="288" type="curve"/>
      <point x="576" y="242" type="line"/>
      <point x="586" y="412"/>
      <point x="553" y="512"/>
      <point x="439" y="512" type="curve" smooth="yes"/>
      <point x="343" y="512"/>
      <point x="276" y="451"/>
      <point x="276" y="254" type="curve" smooth="yes"/>
      <point x="276" y="61"/>
      <point x="328" y="-11"/>
      <point x="439" y="-11" type="curve" smooth="yes"/>
      <point x="501" y="-11"/>
      <point x="550" y="20"/>
      <point x="581" y="96" type="curve"/>
    </contour>
    <contour>
      <point x="326" y="242" type="line"/>
      <point x="576" y="242" type="line"/>
      <point x="537" y="288" type="line"/>
      <point x="326" y="288" type="line"/>
    </contour>
  </outline>
</glyph>
<glyph name="eth" format="1">
  <advance width="600"/>
  <unicode hex="00F0"/>
  <outline>
    <contour>
      <point x="194" y="22"/>
      <point x="118" y="114"/>
      <point x="118" y="251" type="curve" smooth="yes"/>
      <point x="118" y="390"/>
      <point x="189" y="479"/>
      <point x="287" y="479" type="curve" smooth="yes"/>
      <point x="381" y="479"/>
      <point x="458" y="398"/>
      <point x="463" y="336" type="curve"/>
      <point x="485" y="359" type="line"/>
      <point x="477" y="416"/>
      <point x="417" y="512"/>
      <point x="290" y="512" type="curve" smooth="yes"/>
      <point x="150" y="512"/>
      <point x="85" y="404"/>
      <point x="85" y="251" type="curve" smooth="yes"/>
      <point x="85" y="100"/>
      <point x="162" y="-11"/>
      <point x="292" y="-11" type="curve"/>
      <point x="292" y="22" type="line"/>
    </contour>
    <contour>
      <point x="224" y="682" type="line"/>
      <point x="343" y="671"/>
      <point x="462" y="586"/>
      <point x="462" y="328" type="curve" smooth="yes"/>
      <point x="462" y="89"/>
      <point x="385" y="22"/>
      <point x="292" y="22" type="curve"/>
      <point x="292" y="-11" type="line"/>
      <point x="409" y="-11"/>
      <point x="497" y="75"/>
      <point x="497" y="328" type="curve" smooth="yes"/>
      <point x="497" y="566"/>
      <point x="411" y="685"/>
      <point x="242" y="715" type="curve"/>
    </contour>
    <contour>
      <point x="270" y="612" type="line"/>
      <point x="297" y="584" type="line"/>
      <point x="437" y="671" type="line"/>
      <point x="415" y="704" type="line"/>
    </contour>
  </outline>
</glyph>
<glyph name="divide" format="1">
  <advance width="600"/>
  <unicode hex="00F7"/>
  <outline>
    <contour>
      <point x="116" y="281" type="line"/>
      <point x="489" y="281" type="line"/>
      <point x="489" y="327" type="line"/>
      <point x="116" y="327" type="line"/>
    </contour>
    <contour>
      <point x="322" y="118"/>
      <point x="341" y="138"/>
      <point x="341" y="162" type="curve" smooth="yes"/>
      <point x="341" y="185"/>
      <point x="322" y="205"/>
      <point x="298" y="205" type="curve" smooth="yes"/>
      <point x="274" y="205"/>
      <point x="255" y="185"/>
      <point x="255" y="162" type="curve" smooth="yes"/>
      <point x="255" y="138"/>
      <point x="274" y="118"/>
      <point x="298" y="118" type="curve" smooth="yes"/>
    </contour>
    <contour>
      <point x="322" y="406"/>
      <point x="341" y="426"/>
      <point x="341" y="450" type="curve" smooth="yes"/>
      <point x="341" y="473"/>
      <point x="322" y="493"/>
      <point x="298" y="493" type="curve" smooth="yes"/>
      <point x="274" y="493"/>
      <point x="255" y="473"/>
      <point x="255" y="450" type="curve" smooth="yes"/>
      <point x="255" y="426"/>
      <point x="274" y="406"/>
      <point x="298" y="406" type="curve" smooth="yes"/>
    </contour>
  </outline>
</glyph>
<glyph name="thorn" format="1">
  <advance width="600"/>
  <unicode hex="00FE"/>
  <outline>
    <contour>
      <point x="159" y="-200" type="line"/>
      <point x="159" y="800" type="line"/>
      <point x="108" y="800" type="line"/>
      <point x="108" y="-200" type="line"/>
    </contour>
    <contour>
      <point x="153" y="303" type="line"/>
      <point x="166" y="374"/>
      <point x="244" y="463"/>
      <point x="326" y="463" type="curve" smooth="yes"/>
      <point x="416" y="463"/>
      <point x="462" y="401"/>
      <point x="462" y="251" type="curve"/>
      <point x="513" y="251" type="line"/>
      <point x="513" y="434"/>
      <point x="440" y="511"/>
      <point x="335" y="511" type="curve" smooth="yes"/>
      <point x="229" y="511"/>
      <point x="126" y="414"/>
      <point x="126" y="302" type="curve"/>
    </contour>
    <contour>
      <point x="130" y="83"/>
      <point x="213" y="-11"/>
      <point x="326" y="-11" type="curve" smooth="yes"/>
      <point x="431" y="-11"/>
      <point x="513" y="68"/>
      <point x="513" y="251" type="curve"/>
      <point x="462" y="251" type="line"/>
      <point x="462" y="101"/>
      <point x="407" y="37"/>
      <point x="317" y="37" type="curve" smooth="yes"/>
      <point x="235" y="37"/>
      <point x="161" y="120"/>
      <point x="154" y="212" type="curve"/>
      <point x="126" y="210" type="line"/>
    </contour>
  </outline>
</glyph>
<glyph name="aogonek" format="1">
  <advance width="600"/>
  <unicode hex="0105"/>
  <outline>
    <contour>
      <point x="525" y="0" type="line"/>
      <point x="549" y="18" type="line"/>
      <point x="540" y="27" type="line"/>
      <point x="482" y="0" type="line"/>
    </contour>
    <component base="a"/>
    <component base="ogonekcomb" xOffset="173"/>
  </outline>
</glyph>
<glyph name="idotless" format="1">
  <advance width="600"/>
  <unicode hex="0131"/>
  <outline>
    <contour>
      <point x="111" y="468" type="line"/>
      <point x="274" y="468" type="line"/>
      <point x="274" y="500" type="line"/>
      <point x="111" y="500" type="line"/>
    </contour>
    <contour>
      <point x="302" y="26" type="line"/>
      <point x="302" y="500" type="line"/>
      <point x="269" y="500" type="line"/>
      <point x="269" y="1" type="line"/>
    </contour>
    <contour>
      <point x="269" y="0" type="line"/>
      <point x="451" y="0" type="line"/>
      <point x="451" y="32" type="line"/>
      <point x="269" y="32" type="line"/>
    </contour>
  </outline>
</glyph>
<glyph name="Lslash" format="1">
  <advance width="600"/>
  <unicode hex="0141"/>
  <outline>
    <contour>
      <point x="64" y="198" type="line"/>
      <point x="322" y="456" type="line"/>
      <point x="322" y="511" type="line"/>
      <point x="64" y="252" type="line"/>
    </contour>
    <component base="L"/>
  </outline>
</glyph>
<glyph name="Eng" format="1">
  <advance width="600"/>
  <unicode hex="014A"/>
  <outline>
    <contour>
      <point x="500" y="8" type="line"/>
      <point x="170" y="700" type="line"/>
      <point x="118" y="700" type="line"/>
      <point x="450" y="0" type="line"/>
    </contour>
    <contour>
      <point x="436" y="-192"/>
      <point x="500" y="-126"/>
      <point x="500" y="-8" type="curve"/>
      <point x="500" y="10" type="line"/>
      <point x="449" y="2" type="line"/>
      <point x="449" y="-119"/>
      <point x="401" y="-144"/>
      <point x="313" y="-144" type="curve"/>
      <point x="272" y="-144"/>
      <point x="225" y="-135"/>
      <point x="209" y="-130" type="curve"/>
      <point x="196" y="-178" type="line"/>
      <point x="220" y="-184"/>
      <point x="268" y="-192"/>
      <point x="320" y="-192" type="curve"/>
    </contour>
    <contour>
      <point x="153" y="0" type="line"/>
      <point x="153" y="700" type="line"/>
      <point x="102" y="700" type="line"/>
      <point x="102" y="0" type="line"/>
    </contour>
    <contour>
      <point x="500" y="0" type="line"/>
      <point x="500" y="700" type="line"/>
      <point x="449" y="700" type="line"/>
      <point x="449" y="0" type="line"/>
    </contour>
  </outline>
</glyph>
<glyph name="eng" format="1">
  <advance width="600"/>
  <unicode hex="014B"/>
  <outline>
    <contour>
      <point x="225" y="-183" type="line"/>
      <point x="242" y="-188"/>
      <point x="269" y="-192"/>
      <point x="308" y="-192" type="curve"/>
      <point x="396" y="-192"/>
      <point x="482" y="-130"/>
      <point x="482" y="-5" type="curve"/>
      <point x="482" y="8" type="line"/>
      <point x="431" y="2" type="line"/>
      <point x="431" y="-84"/>
      <point x="391" y="-144"/>
      <point x="303" y="-144" type="curve"/>
      <point x="275" y="-144"/>
      <point x="247" y="-139"/>
      <point x="238" y="-135" type="curve"/>
    </contour>
    <component base="n"/>
  </outline>
</glyph>
<glyph name="OE" format="1">
  <advance width="600"/>
  <unicode hex="0152"/>
  <outline>
    <contour>
      <point x="255" y="-11"/>
      <point x="285" y="-7"/>
      <point x="309" y="6" type="curve"/>
      <point x="292" y="53" type="line"/>
      <point x="272" y="41"/>
      <point x="250" y="37"/>
      <point x="228" y="37" type="curve" smooth="yes"/>
      <point x="160" y="37"/>
      <point x="88" y="92"/>
      <point x="88" y="348" type="curve" smooth="yes"/>
      <point x="88" y="603"/>
      <point x="160" y="658"/>
      <point x="228" y="658" type="curve" smooth="yes"/>
      <point x="251" y="658"/>
      <point x="272" y="654"/>
      <point x="292" y="642" type="curve"/>
      <point x="309" y="689" type="line"/>
      <point x="284" y="701"/>
      <point x="256" y="706"/>
      <point x="228" y="706" type="curve" smooth="yes"/>
      <point x="135" y="706"/>
      <point x="33" y="642"/>
      <point x="33" y="348" type="curve" smooth="yes"/>
      <point x="33" y="53"/>
      <point x="135" y="-11"/>
      <point x="228" y="-11" type="curve" smooth="yes"/>
    </contour>
    <contour>
      <point x="565" y="0" type="line"/>
      <point x="565" y="47" type="line"/>
      <point x="294" y="47" type="line"/>
      <point x="294" y="0" type="line"/>
    </contour>
    <contour>
      <point x="341" y="0" type="line"/>
      <point x="341" y="700" type="line"/>
      <point x="290" y="700" type="line"/>
      <point x="290" y="0" type="line"/>
    </contour>
    <contour>
      <point x="541" y="321" type="line"/>
      <point x="541" y="367" type="line"/>
      <point x="332" y="367" type="line"/>
      <point x="332" y="321" type="line"/>
    </contour>
    <contour>
      <point x="565" y="653" type="line"/>
      <point x="565" y="700" type="line"/>
      <point x="279" y="700" type="line"/>
      <point x="279" y="653" type="line"/>
    </contour>
  </outline>
</glyph>
<glyph name="oe" format="1">
  <advance width="600"/>
  <unicode hex="0153"/>
  <outline>
    <contour>
      <point x="272" y="-11"/>
      <point x="327" y="73"/>
      <point x="327" y="251" type="curve" smooth="yes"/>
      <point x="327" y="428"/>
      <point x="272" y="512"/>
      <point x="184" y="512" type="curve" smooth="yes"/>
      <point x="101" y="512"/>
      <point x="40" y="443"/>
      <point x="40" y="251" type="curve" smooth="yes"/>
      <point x="40" y="58"/>
      <point x="101" y="-11"/>
      <point x="184" y="-11" type="curve" smooth="yes"/>
    </contour>
    <contour>
      <point x="134" y="37"/>
      <point x="94" y="85"/>
      <point x="94" y="251" type="curve" smooth="yes"/>
      <point x="94" y="414"/>
      <point x="134" y="464"/>
      <point x="184" y="464" type="curve" smooth="yes"/>
      <point x="233" y="464"/>
      <point x="271" y="414"/>
      <point x="271" y="251" type="curve" smooth="yes"/>
      <point x="271" y="85"/>
      <point x="233" y="37"/>
      <point x="184" y="37" type="curve" smooth="yes"/>
    </contour>
    <contour>
      <point x="489" y="-11"/>
      <point x="545" y="20"/>
      <point x="576" y="96" type="curve"/>
      <point x="529" y="117" type="line"/>
      <point x="518" y="87"/>
      <point x="495" y="37"/>
      <point x="429" y="37" type="curve" smooth="yes"/>
      <point x="349" y="37"/>
      <point x="327" y="119"/>
      <point x="327" y="251" type="curve" smooth="yes"/>
      <point x="327" y="387"/>
      <point x="358" y="464"/>
      <point x="432" y="464" type="curve" smooth="yes"/>
      <point x="517" y="464"/>
      <point x="518" y="363"/>
      <point x="518" y="288" type="curve"/>
      <point x="570" y="242" type="line"/>
      <point x="580" y="412"/>
      <point x="548" y="512"/>
      <point x="434" y="512" type="curve" smooth="yes"/>
      <point x="332" y="512"/>
      <point x="274" y="429"/>
      <point x="274" y="254" type="curve" smooth="yes"/>
      <point x="274" y="83"/>
      <point x="317" y="-11"/>
      <point x="427" y="-11" type="curve" smooth="yes"/>
    </contour>
    <contour>
      <point x="570" y="242" type="line"/>
      <point x="531" y="288" type="line"/>
      <point x="323" y="288" type="line"/>
      <point x="323" y="242" type="line"/>
    </contour>
  </outline>
</glyph>
<glyph name="uogonek" format="1">
  <advance width="600"/>
  <unicode hex="0173"/>
  <outline>
    <contour>
      <point x="459" y="-1" type="line"/>
      <point x="483" y="-7" type="line"/>
      <point x="483" y="11" type="line"/>
      <point x="466" y="2" type="line"/>
    </contour>
    <component base="u"/>
    <component base="ogonekcomb" xOffset="147"/>
  </outline>
</glyph>
<glyph name="circumflex" format="1">
  <advance width="600"/>
  <unicode hex="02C6"/>
  <outline>
    <contour>
      <point x="325" y="743" type="line"/>
      <point x="274" y="743" type="line"/>
      <point x="154" y="619" type="line"/>
      <point x="220" y="619" type="line"/>
      <point x="300" y="705" type="line"/>
      <point x="379" y="619" type="line"/>
      <point x="445" y="619" type="line"/>
    </contour>
  </outline>
</glyph>
<glyph name="caron" format="1">
  <advance width="600"/>
  <unicode hex="02C7"/>
  <outline>
    <contour>
      <point x="379" y="743" type="line"/>
      <point x="300" y="657" type="line"/>
      <point x="220" y="743" type="line"/>
      <point x="154" y="743" type="line"/>
      <point x="274" y="619" type="line"/>
      <point x="325" y="619" type="line"/>
      <point x="445" y="743" type="line"/>
    </contour>
  </outline>
</glyph>
<glyph name="breve" format="1">
  <advance width="600"/>
  <unicode hex="02D8"/>
  <outline>
    <contour>
      <point x="362" y="740" type="line"/>
      <point x="362" y="715"/>
      <point x="355" y="655"/>
      <point x="300" y="655" type="curve" smooth="yes"/>
      <point x="246" y="655"/>
      <point x="238" y="715"/>
      <point x="238" y="740" type="curve"/>
      <point x="188" y="740" type="line"/>
      <point x="188" y="678"/>
      <point x="223" y="616"/>
      <point x="299" y="616" type="curve" smooth="yes"/>
      <point x="375" y="616"/>
      <point x="412" y="678"/>
      <point x="412" y="740" type="curve"/>
    </contour>
  </outline>
</glyph>
<glyph name="dotaccent" format="1">
  <advance width="600"/>
  <unicode hex="02D9"/>
  <outline>
    <contour>
      <point x="322" y="650"/>
      <point x="344" y="672"/>
      <point x="344" y="700" type="curve" smooth="yes"/>
      <point x="344" y="728"/>
      <point x="322" y="751"/>
      <point x="294" y="751" type="curve" smooth="yes"/>
      <point x="266" y="751"/>
      <point x="244" y="728"/>
      <point x="244" y="700" type="curve" smooth="yes"/>
      <point x="244" y="672"/>
      <point x="266" y="650"/>
      <point x="294" y="650" type="curve" smooth="yes"/>
    </contour>
  </outline>
</glyph>
<glyph name="ring" format="1">
  <advance width="600"/>
  <unicode hex="02DA"/>
  <outline>
    <contour>
      <point x="341" y="582"/>
      <point x="378" y="617"/>
      <point x="378" y="663" type="curve" smooth="yes"/>
      <point x="378" y="707"/>
      <point x="341" y="743"/>
      <point x="298" y="743" type="curve" smooth="yes"/>
      <point x="253" y="743"/>
      <point x="216" y="707"/>
      <point x="216" y="663" type="curve" smooth="yes"/>
      <point x="216" y="617"/>
      <point x="253" y="582"/>
      <point x="298" y="582" type="curve" smooth="yes"/>
    </contour>
    <contour>
      <point x="273" y="619"/>
      <point x="253" y="636"/>
      <point x="253" y="664" type="curve" smooth="yes"/>
      <point x="253" y="688"/>
      <point x="273" y="705"/>
      <point x="298" y="705" type="curve" smooth="yes"/>
      <point x="322" y="705"/>
      <point x="342" y="688"/>
      <point x="342" y="664" type="curve" smooth="yes"/>
      <point x="342" y="636"/>
      <point x="322" y="619"/>
      <point x="298" y="619" type="curve" smooth="yes"/>
    </contour>
  </outline>
</glyph>
<glyph name="ogonek" format="1">
  <advance width="600"/>
  <unicode hex="02DB"/>
  <outline>
    <contour>
      <point x="310" y="0" type="line" smooth="yes"/>
      <point x="310" y="0"/>
      <point x="210" y="-43"/>
      <point x="210" y="-114" type="curve" smooth="yes"/>
      <point x="210" y="-202"/>
      <point x="316" y="-213"/>
      <point x="391" y="-190" type="curve"/>
      <point x="374" y="-147" type="line"/>
      <point x="341" y="-158"/>
      <point x="266" y="-167"/>
      <point x="266" y="-108" type="curve" smooth="yes"/>
      <point x="266" y="-52"/>
      <point x="353" y="0"/>
      <point x="353" y="0" type="curve" smooth="yes"/>
    </contour>
  </outline>
</glyph>
<glyph name="tilde" format="1">
  <advance width="600"/>
  <unicode hex="02DC"/>
  <outline>
    <contour>
      <point x="126" y="689"/>
      <point x="173" y="739"/>
      <point x="230" y="739" type="curve" smooth="yes"/>
      <point x="292" y="739"/>
      <point x="308" y="677"/>
      <point x="357" y="677" type="curve" smooth="yes"/>
      <point x="406" y="677"/>
      <point x="430" y="720"/>
      <point x="430" y="720" type="curve"/>
      <point x="459" y="695" type="line"/>
      <point x="455" y="690"/>
      <point x="412" y="643"/>
      <point x="355" y="643" type="curve" smooth="yes"/>
      <point x="293" y="643"/>
      <point x="277" y="704"/>
      <point x="228" y="704" type="curve" smooth="yes"/>
      <point x="179" y="704"/>
      <point x="153" y="662"/>
      <point x="153" y="662" type="curve"/>
      <point x="124" y="686" type="line"/>
    </contour>
  </outline>
</glyph>
<glyph name="hungarumlaut" format="1">
  <advance width="600"/>
  <unicode hex="02DD"/>
  <outline>
    <contour>
      <point x="238" y="609" type="line"/>
      <point x="316" y="743" type="line"/>
      <point x="251" y="743" type="line"/>
      <point x="194" y="609" type="line"/>
    </contour>
    <contour>
      <point x="360" y="609" type="line"/>
      <point x="469" y="743" type="line"/>
      <point x="401" y="743" type="line"/>
      <point x="317" y="609" type="line"/>
    </contour>
  </outline>
</glyph>
<glyph name="strokeshortcomb" format="1">
  <advance width="600"/>
  <unicode hex="0335"/>
  <outline>
    <contour>
      <point x="148" y="334" type="line"/>
      <point x="446" y="334" type="line"/>
      <point x="446" y="374" type="line"/>
      <point x="148" y="374" type="line"/>
    </contour>
  </outline>
</glyph>
<glyph name="strokelongcomb" format="1">
  <advance width="600"/>
  <unicode hex="0336"/>
  <outline>
    <contour>
      <point x="78" y="334" type="line"/>
      <point x="520" y="334" type="line"/>
      <point x="520" y="374" type="line"/>
      <point x="78" y="374" type="line"/>
    </contour>
  </outline>
</glyph>
<glyph name="slashshortcomb" format="1">
  <advance width="600"/>
  <unicode hex="0337"/>
  <outline>
    <contour>
      <point x="453" y="534" type="line"/>
      <point x="69" y="-33" type="line"/>
      <point x="121" y="-33" type="line"/>
      <point x="505" y="534" type="line"/>
    </contour>
  </outline>
</glyph>
<glyph name="slashlongcomb" format="1">
  <advance width="600"/>
  <unicode hex="0338"/>
  <outline>
    <contour>
      <point x="506" y="727" type="line"/>
      <point x="38" y="-33" type="line"/>
      <point x="90" y="-33" type="line"/>
      <point x="558" y="727" type="line"/>
    </contour>
  </outline>
</glyph>
<glyph name="endash" format="1">
  <advance width="600"/>
  <unicode hex="2013"/>
  <outline>
    <contour>
      <point x="112" y="281" type="line"/>
      <point x="478" y="281" type="line"/>
      <point x="478" y="327" type="line"/>
      <point x="112" y="327" type="line"/>
    </contour>
  </outline>
</glyph>
<glyph name="emdash" format="1">
  <advance width="600"/>
  <unicode hex="2014"/>
  <outline>
    <contour>
      <point x="36" y="288" type="line"/>
      <point x="562" y="288" type="line"/>
      <point x="562" y="320" type="line"/>
      <point x="36" y="320" type="line"/>
    </contour>
  </outline>
</glyph>
<glyph name="quoteleft" format="1">
  <advance width="600"/>
  <unicode hex="2018"/>
  <outline>
    <contour>
      <point x="266" y="666"/>
      <point x="241" y="641"/>
      <point x="241" y="609" type="curve" smooth="yes"/>
      <point x="241" y="579"/>
      <point x="266" y="554"/>
      <point x="297" y="554" type="curve" smooth="yes"/>
      <point x="328" y="554"/>
      <point x="353" y="579"/>
      <point x="353" y="609" type="curve" smooth="yes"/>
      <point x="353" y="641"/>
      <point x="328" y="666"/>
      <point x="297" y="666" type="curve" smooth="yes"/>
    </contour>
    <contour>
      <point x="337" y="751" type="line"/>
      <point x="300" y="768" type="line"/>
      <point x="245" y="631" type="line"/>
      <point x="301" y="639" type="line"/>
    </contour>
  </outline>
</glyph>
<glyph name="quoteright" format="1">
  <advance width="600"/>
  <unicode hex="2019"/>
  <outline>
    <contour>
      <point x="343" y="656"/>
      <point x="369" y="681"/>
      <point x="369" y="713" type="curve" smooth="yes"/>
      <point x="369" y="743"/>
      <point x="343" y="768"/>
      <point x="313" y="768" type="curve" smooth="yes"/>
      <point x="282" y="768"/>
      <point x="256" y="743"/>
      <point x="256" y="713" type="curve" smooth="yes"/>
      <point x="256" y="681"/>
      <point x="282" y="656"/>
      <point x="313" y="656" type="curve" smooth="yes"/>
    </contour>
    <contour>
      <point x="272" y="571" type="line"/>
      <point x="309" y="554" type="line"/>
      <point x="364" y="691" type="line"/>
      <point x="309" y="683" type="line"/>
    </contour>
  </outline>
</glyph>
<glyph name="quotedblleft" format="1">
  <advance width="600"/>
  <unicode hex="201C"/>
  <outline>
    <contour>
      <point x="257" y="639" type="line"/>
      <point x="293" y="751" type="line"/>
      <point x="256" y="768" type="line"/>
      <point x="201" y="631" type="line"/>
    </contour>
    <contour>
      <point x="453" y="554"/>
      <point x="478" y="580"/>
      <point x="478" y="610" type="curve" smooth="yes"/>
      <point x="478" y="641"/>
      <point x="453" y="666"/>
      <point x="422" y="666" type="curve" smooth="yes"/>
      <point x="391" y="666"/>
      <point x="366" y="641"/>
      <point x="366" y="610" type="curve" smooth="yes"/>
      <point x="366" y="580"/>
      <point x="391" y="554"/>
      <point x="422" y="554" type="curve" smooth="yes"/>
    </contour>
    <contour>
      <point x="426" y="639" type="line"/>
      <point x="463" y="751" type="line"/>
      <point x="425" y="768" type="line"/>
      <point x="371" y="631" type="line"/>
    </contour>
    <contour>
      <point x="284" y="554"/>
      <point x="309" y="580"/>
      <point x="309" y="610" type="curve" smooth="yes"/>
      <point x="309" y="641"/>
      <point x="284" y="666"/>
      <point x="253" y="666" type="curve" smooth="yes"/>
      <point x="222" y="666"/>
      <point x="197" y="641"/>
      <point x="197" y="610" type="curve" smooth="yes"/>
      <point x="197" y="580"/>
      <point x="222" y="554"/>
      <point x="253" y="554" type="curve" smooth="yes"/>
    </contour>
  </outline>
</glyph>
<glyph name="quotedblright" format="1">
  <advance width="600"/>
  <unicode hex="201D"/>
  <outline>
    <contour>
      <point x="394" y="651"/>
      <point x="419" y="676"/>
      <point x="419" y="708" type="curve" smooth="yes"/>
      <point x="419" y="738"/>
      <point x="394" y="763"/>
      <point x="363" y="763" type="curve" smooth="yes"/>
      <point x="332" y="763"/>
      <point x="307" y="738"/>
      <point x="307" y="708" type="curve" smooth="yes"/>
      <point x="307" y="676"/>
      <point x="332" y="651"/>
      <point x="363" y="651" type="curve" smooth="yes"/>
    </contour>
    <contour>
      <point x="243" y="686" type="line"/>
      <point x="188" y="678" type="line"/>
      <point x="151" y="566" type="line"/>
      <point x="189" y="549" type="line"/>
    </contour>
    <contour>
      <point x="223" y="651"/>
      <point x="248" y="676"/>
      <point x="248" y="708" type="curve" smooth="yes"/>
      <point x="248" y="738"/>
      <point x="223" y="763"/>
      <point x="192" y="763" type="curve" smooth="yes"/>
      <point x="161" y="763"/>
      <point x="136" y="738"/>
      <point x="136" y="708" type="curve" smooth="yes"/>
      <point x="136" y="676"/>
      <point x="161" y="651"/>
      <point x="192" y="651" type="curve" smooth="yes"/>
    </contour>
    <contour>
      <point x="414" y="686" type="line"/>
      <point x="359" y="678" type="line"/>
      <point x="323" y="566" type="line"/>
      <point x="360" y="549" type="line"/>
    </contour>
  </outline>
</glyph>
<glyph name="daggerdbl" format="1">
  <advance width="600"/>
  <unicode hex="2021"/>
  <outline>
    <contour>
      <point x="117" y="188" type="line"/>
      <point x="482" y="188" type="line"/>
      <point x="482" y="220" type="line"/>
      <point x="117" y="220" type="line"/>
    </contour>
    <component base="dagger"/>
  </outline>
</glyph>
<glyph name="bullet" format="1">
  <advance width="600"/>
  <unicode hex="2022"/>
  <outline>
    <contour>
      <point x="341" y="255"/>
      <point x="376" y="291"/>
      <point x="376" y="335" type="curve" smooth="yes"/>
      <point x="376" y="380"/>
      <point x="341" y="416"/>
      <point x="296" y="416" type="curve" smooth="yes"/>
      <point x="251" y="416"/>
      <point x="216" y="380"/>
      <point x="216" y="335" type="curve" smooth="yes"/>
      <point x="216" y="291"/>
      <point x="251" y="255"/>
      <point x="296" y="255" type="curve" smooth="yes"/>
    </contour>
  </outline>
</glyph>
<glyph name="perthousand" format="1">
  <advance width="600"/>
  <unicode hex="2030"/>
  <outline>
    <contour>
      <point x="575" y="561" type="line"/>
      <point x="550" y="594" type="line"/>
      <point x="13" y="261" type="line"/>
      <point x="38" y="228" type="line"/>
    </contour>
    <contour>
      <point x="249" y="2"/>
      <point x="294" y="31"/>
      <point x="294" y="110" type="curve" smooth="yes"/>
      <point x="294" y="187"/>
      <point x="249" y="216"/>
      <point x="194" y="216" type="curve" smooth="yes"/>
      <point x="139" y="216"/>
      <point x="94" y="187"/>
      <point x="94" y="110" type="curve" smooth="yes"/>
      <point x="94" y="31"/>
      <point x="139" y="2"/>
      <point x="194" y="2" type="curve" smooth="yes"/>
    </contour>
    <contour>
      <point x="161" y="31"/>
      <point x="135" y="45"/>
      <point x="135" y="112" type="curve" smooth="yes"/>
      <point x="135" y="172"/>
      <point x="161" y="188"/>
      <point x="194" y="188" type="curve" smooth="yes"/>
      <point x="225" y="188"/>
      <point x="253" y="172"/>
      <point x="253" y="112" type="curve" smooth="yes"/>
      <point x="253" y="45"/>
      <point x="225" y="31"/>
      <point x="194" y="31" type="curve" smooth="yes"/>
    </contour>
    <contour>
      <point x="497" y="2"/>
      <point x="543" y="31"/>
      <point x="543" y="110" type="curve" smooth="yes"/>
      <point x="543" y="187"/>
      <point x="497" y="216"/>
      <point x="442" y="216" type="curve" smooth="yes"/>
      <point x="387" y="216"/>
      <point x="343" y="187"/>
      <point x="343" y="110" type="curve" smooth="yes"/>
      <point x="343" y="31"/>
      <point x="387" y="2"/>
      <point x="442" y="2" type="curve" smooth="yes"/>
    </contour>
    <contour>
      <point x="410" y="31"/>
      <point x="384" y="45"/>
      <point x="384" y="112" type="curve" smooth="yes"/>
      <point x="384" y="172"/>
      <point x="410" y="188"/>
      <point x="442" y="188" type="curve" smooth="yes"/>
      <point x="474" y="188"/>
      <point x="502" y="172"/>
      <point x="502" y="112" type="curve" smooth="yes"/>
      <point x="502" y="45"/>
      <point x="474" y="31"/>
      <point x="442" y="31" type="curve" smooth="yes"/>
    </contour>
    <contour>
      <point x="249" y="469"/>
      <point x="294" y="498"/>
      <point x="294" y="577" type="curve" smooth="yes"/>
      <point x="294" y="654"/>
      <point x="249" y="683"/>
      <point x="194" y="683" type="curve" smooth="yes"/>
      <point x="139" y="683"/>
      <point x="95" y="654"/>
      <point x="95" y="577" type="curve" smooth="yes"/>
      <point x="95" y="498"/>
      <point x="139" y="469"/>
      <point x="194" y="469" type="curve" smooth="yes"/>
    </contour>
    <contour>
      <point x="161" y="498"/>
      <point x="135" y="512"/>
      <point x="135" y="579" type="curve" smooth="yes"/>
      <point x="135" y="638"/>
      <point x="161" y="654"/>
      <point x="194" y="654" type="curve" smooth="yes"/>
      <point x="226" y="654"/>
      <point x="254" y="638"/>
      <point x="254" y="579" type="curve" smooth="yes"/>
      <point x="254" y="512"/>
      <point x="226" y="498"/>
      <point x="194" y="498" type="curve" smooth="yes"/>
    </contour>
  </outline>
</glyph>
<glyph name="guilsinglleft" format="1">
  <advance width="600"/>
  <unicode hex="2039"/>
  <outline>
    <contour>
      <point x="224" y="267" type="line"/>
      <point x="427" y="505" type="line"/>
      <point x="402" y="530" type="line"/>
      <point x="183" y="317" type="line"/>
    </contour>
    <contour>
      <point x="402" y="57" type="line"/>
      <point x="427" y="82" type="line"/>
      <point x="224" y="321" type="line"/>
      <point x="183" y="270" type="line"/>
    </contour>
    <contour>
      <point x="183" y="270" type="line"/>
      <point x="221" y="270" type="line"/>
      <point x="221" y="317" type="line"/>
      <point x="183" y="317" type="line"/>
    </contour>
  </outline>
</glyph>
<glyph name="fraction" format="1">
  <advance width="600"/>
  <unicode hex="2044"/>
  <outline>
    <contour>
      <point x="497" y="800" type="line"/>
      <point x="58" y="-142" type="line"/>
      <point x="96" y="-142" type="line"/>
      <point x="535" y="800" type="line"/>
    </contour>
  </outline>
</glyph>
<glyph name="euro" format="1">
  <advance width="600"/>
  <unicode hex="20AC"/>
  <outline>
    <contour>
      <point x="427" y="-11"/>
      <point x="495" y="28"/>
      <point x="526" y="89" type="curve"/>
      <point x="494" y="106" type="line"/>
      <point x="466" y="53"/>
      <point x="409" y="22"/>
      <point x="335" y="22" type="curve" smooth="yes"/>
      <point x="219" y="22"/>
      <point x="157" y="125"/>
      <point x="157" y="348" type="curve" smooth="yes"/>
      <point x="157" y="571"/>
      <point x="223" y="673"/>
      <point x="339" y="673" type="curve" smooth="yes"/>
      <point x="414" y="673"/>
      <point x="462" y="640"/>
      <point x="494" y="579" type="curve"/>
      <point x="526" y="595" type="line"/>
      <point x="489" y="664"/>
      <point x="427" y="706"/>
      <point x="339" y="706" type="curve"/>
      <point x="196" y="706"/>
      <point x="122" y="593"/>
      <point x="122" y="348" type="curve" smooth="yes"/>
      <point x="122" y="103"/>
      <point x="192" y="-11"/>
      <point x="335" y="-11" type="curve" smooth="yes"/>
    </contour>
    <contour>
      <point x="407" y="247" type="line"/>
      <point x="411" y="279" type="line"/>
      <point x="29" y="279" type="line"/>
      <point x="25" y="247" type="line"/>
    </contour>
    <contour>
      <point x="430" y="422" type="line"/>
      <point x="434" y="454" type="line"/>
      <point x="42" y="454" type="line"/>
      <point x="38" y="422" type="line"/>
    </contour>
  </outline>
</glyph>
<glyph name="trademark" format="1">
  <advance width="600"/>
  <unicode hex="2122"/>
  <outline>
    <contour>
      <point x="169" y="426" type="line"/>
      <point x="169" y="700" type="line"/>
      <point x="132" y="700" type="line"/>
      <point x="132" y="426" type="line"/>
    </contour>
    <contour>
      <point x="33" y="667" type="line"/>
      <point x="276" y="667" type="line"/>
      <point x="276" y="700" type="line"/>
      <point x="33" y="700" type="line"/>
    </contour>
    <contour>
      <point x="338" y="426" type="line"/>
      <point x="351" y="700" type="line"/>
      <point x="318" y="700" type="line"/>
      <point x="301" y="426" type="line"/>
    </contour>
    <contour>
      <point x="552" y="426" type="line"/>
      <point x="533" y="700" type="line"/>
      <point x="501" y="700" type="line"/>
      <point x="512" y="426" type="line"/>
    </contour>
    <contour>
      <point x="432" y="518" type="line"/>
      <point x="415" y="448" type="line"/>
      <point x="447" y="448" type="line"/>
      <point x="513" y="700" type="line"/>
      <point x="483" y="700" type="line"/>
    </contour>
    <contour>
      <point x="338" y="700" type="line"/>
      <point x="406" y="448" type="line"/>
      <point x="438" y="448" type="line"/>
      <point x="421" y="518" type="line"/>
      <point x="370" y="700" type="line"/>
    </contour>
  </outline>
</glyph>
<glyph name="upArrow" format="1">
  <advance width="600"/>
  <unicode hex="2191"/>
  <outline>
    <contour>
      <point x="314" y="94" type="line"/>
      <point x="314" y="384" type="line"/>
      <point x="271" y="384" type="line" smooth="yes"/>
      <point x="271" y="94" type="line"/>
    </contour>
    <contour>
      <point x="293" y="447" type="line"/>
      <point x="227" y="362" type="line"/>
      <point x="359" y="362" type="line"/>
    </contour>
  </outline>
</glyph>
<glyph name="emptyset" format="1">
  <advance width="600"/>
  <unicode hex="2205"/>
  <outline>
    <contour>
      <point x="463" y="-2"/>
      <point x="593" y="128"/>
      <point x="593" y="288" type="curve" smooth="yes"/>
      <point x="593" y="448"/>
      <point x="463" y="578"/>
      <point x="303" y="578" type="curve" smooth="yes"/>
      <point x="142" y="578"/>
      <point x="12" y="448"/>
      <point x="12" y="288" type="curve" smooth="yes"/>
      <point x="12" y="128"/>
      <point x="142" y="-2"/>
      <point x="303" y="-2" type="curve" smooth="yes"/>
    </contour>
    <contour>
      <point x="170" y="48"/>
      <point x="62" y="156"/>
      <point x="62" y="288" type="curve" smooth="yes"/>
      <point x="62" y="420"/>
      <point x="170" y="528"/>
      <point x="303" y="528" type="curve" smooth="yes"/>
      <point x="435" y="528"/>
      <point x="543" y="420"/>
      <point x="543" y="288" type="curve" smooth="yes"/>
      <point x="543" y="156"/>
      <point x="435" y="48"/>
      <point x="303" y="48" type="curve" smooth="yes"/>
    </contour>
    <contour>
      <point x="14" y="37" type="line"/>
      <point x="41" y="10" type="line"/>
      <point x="575" y="544" type="line"/>
      <point x="548" y="571" type="line"/>
    </contour>
  </outline>
</glyph>
<glyph name="minus" format="1">
  <advance width="600"/>
  <unicode hex="2212"/>
  <outline>
    <contour>
      <point x="116" y="281" type="line"/>
      <point x="489" y="281" type="line"/>
      <point x="489" y="327" type="line"/>
      <point x="116" y="327" type="line"/>
    </contour>
  </outline>
</glyph>
<glyph name="radical" format="1">
  <advance width="600"/>
  <unicode hex="221A"/>
  <outline>
    <contour>
      <point x="265" y="0" type="line"/>
      <point x="459" y="869" type="line"/>
      <point x="405" y="869" type="line"/>
      <point x="211" y="0" type="line"/>
    </contour>
    <contour>
      <point x="253" y="0" type="line"/>
      <point x="253" y="47" type="line"/>
      <point x="137" y="47" type="line"/>
      <point x="137" y="0" type="line"/>
    </contour>
    <contour>
      <point x="179" y="0" type="line"/>
      <point x="94" y="377" type="line"/>
      <point x="40" y="377" type="line"/>
      <point x="125" y="0" type="line"/>
    </contour>
    <contour>
      <point x="596" y="822" type="line"/>
      <point x="596" y="869" type="line"/>
      <point x="440" y="869" type="line"/>
      <point x="440" y="822" type="line"/>
    </contour>
  </outline>
</glyph>
<glyph name="infinity" format="1">
  <advance width="600"/>
  <unicode hex="221E"/>
  <outline>
    <contour>
      <point x="295" y="147"/>
      <point x="317" y="309"/>
      <point x="317" y="309" type="curve" smooth="yes"/>
      <point x="317" y="309"/>
      <point x="295" y="469"/>
      <point x="185" y="475" type="curve" smooth="yes"/>
      <point x="101" y="480"/>
      <point x="51" y="413"/>
      <point x="51" y="309" type="curve" smooth="yes"/>
      <point x="51" y="203"/>
      <point x="101" y="136"/>
      <point x="185" y="141" type="curve" smooth="yes"/>
    </contour>
    <contour>
      <point x="132" y="182"/>
      <point x="94" y="219"/>
      <point x="94" y="309" type="curve" smooth="yes"/>
      <point x="94" y="397"/>
      <point x="132" y="434"/>
      <point x="181" y="434" type="curve" smooth="yes"/>
      <point x="254" y="434"/>
      <point x="279" y="309"/>
      <point x="279" y="309" type="curve" smooth="yes"/>
      <point x="279" y="309"/>
      <point x="254" y="182"/>
      <point x="181" y="182" type="curve" smooth="yes"/>
    </contour>
    <contour>
      <point x="495" y="136"/>
      <point x="545" y="203"/>
      <point x="545" y="309" type="curve" smooth="yes"/>
      <point x="545" y="413"/>
      <point x="495" y="480"/>
      <point x="411" y="475" type="curve" smooth="yes"/>
      <point x="301" y="469"/>
      <point x="279" y="309"/>
      <point x="279" y="309" type="curve" smooth="yes"/>
      <point x="279" y="309"/>
      <point x="301" y="147"/>
      <point x="411" y="141" type="curve" smooth="yes"/>
    </contour>
    <contour>
      <point x="342" y="182"/>
      <point x="317" y="309"/>
      <point x="317" y="309" type="curve" smooth="yes"/>
      <point x="317" y="309"/>
      <point x="342" y="434"/>
      <point x="415" y="434" type="curve" smooth="yes"/>
      <point x="463" y="434"/>
      <point x="502" y="397"/>
      <point x="502" y="309" type="curve" smooth="yes"/>
      <point x="502" y="219"/>
      <point x="463" y="182"/>
      <point x="415" y="182" type="curve" smooth="yes"/>
    </contour>
  </outline>
</glyph>
<glyph name="approxequal" format="1">
  <advance width="600"/>
  <unicode hex="2248"/>
  <outline>
    <contour>
      <point x="78" y="411"/>
      <point x="146" y="456"/>
      <point x="205" y="456" type="curve" smooth="yes"/>
      <point x="298" y="456"/>
      <point x="310" y="388"/>
      <point x="376" y="388" type="curve" smooth="yes"/>
      <point x="428" y="388"/>
      <point x="474" y="425"/>
      <point x="474" y="425" type="curve"/>
      <point x="490" y="398" type="line"/>
      <point x="482" y="388"/>
      <point x="439" y="349"/>
      <point x="380" y="349" type="curve" smooth="yes"/>
      <point x="287" y="349"/>
      <point x="274" y="415"/>
      <point x="208" y="415" type="curve" smooth="yes"/>
      <point x="156" y="415"/>
      <point x="89" y="370"/>
      <point x="89" y="370" type="curve"/>
      <point x="73" y="400" type="line"/>
    </contour>
    <contour>
      <point x="78" y="228"/>
      <point x="146" y="272"/>
      <point x="205" y="272" type="curve" smooth="yes"/>
      <point x="298" y="272"/>
      <point x="310" y="204"/>
      <point x="376" y="204" type="curve" smooth="yes"/>
      <point x="428" y="204"/>
      <point x="474" y="242"/>
      <point x="474" y="242" type="curve"/>
      <point x="490" y="215" type="line"/>
      <point x="482" y="205"/>
      <point x="439" y="166"/>
      <point x="380" y="166" type="curve" smooth="yes"/>
      <point x="287" y="166"/>
      <point x="274" y="232"/>
      <point x="208" y="232" type="curve" smooth="yes"/>
      <point x="156" y="232"/>
      <point x="89" y="187"/>
      <point x="89" y="187" type="curve"/>
      <point x="73" y="217" type="line"/>
    </contour>
  </outline>
</glyph>
<glyph name="notequal" format="1">
  <advance width="600"/>
  <unicode hex="2260"/>
  <outline>
    <contour>
      <point x="220" y="104" type="line"/>
      <point x="415" y="510" type="line"/>
      <point x="365" y="510" type="line"/>
      <point x="170" y="104" type="line"/>
    </contour>
    <component base="equal"/>
  </outline>
</glyph>
<glyph name="greaterequal" format="1">
  <advance width="600"/>
  <unicode hex="2265"/>
  <outline>
    <contour>
      <point x="165" y="613" type="line"/>
      <point x="140" y="575" type="line"/>
      <point x="424" y="391" type="line"/>
      <point x="471" y="439" type="line"/>
    </contour>
    <contour>
      <point x="420" y="439" type="line"/>
      <point x="420" y="380" type="line"/>
      <point x="471" y="380" type="line"/>
      <point x="471" y="439" type="line"/>
    </contour>
    <contour>
      <point x="424" y="428" type="line"/>
      <point x="140" y="244" type="line"/>
      <point x="165" y="206" type="line"/>
      <point x="471" y="380" type="line"/>
    </contour>
    <contour>
      <point x="127" y="169" type="line"/>
      <point x="127" y="122" type="line"/>
      <point x="471" y="122" type="line"/>
      <point x="471" y="169" type="line"/>
    </contour>
  </outline>
</glyph>
<glyph name="lozenge" format="1">
  <advance width="600"/>
  <unicode hex="25CA"/>
  <outline>
    <contour>
      <point x="279" y="672" type="line"/>
      <point x="486" y="331" type="line"/>
      <point x="533" y="350" type="line"/>
      <point x="323" y="700" type="line"/>
    </contour>
    <contour>
      <point x="278" y="700" type="line"/>
      <point x="278" y="656" type="line"/>
      <point x="323" y="656" type="line"/>
      <point x="323" y="700" type="line"/>
    </contour>
    <contour>
      <point x="68" y="350" type="line"/>
      <point x="115" y="331" type="line"/>
      <point x="322" y="672" type="line"/>
      <point x="278" y="700" type="line"/>
    </contour>
    <contour>
      <point x="533" y="350" type="line"/>
      <point x="486" y="369" type="line"/>
      <point x="279" y="28" type="line"/>
      <point x="323" y="0" type="line"/>
    </contour>
    <contour>
      <point x="323" y="44" type="line"/>
      <point x="278" y="44" type="line"/>
      <point x="278" y="0" type="line"/>
      <point x="323" y="0" type="line"/>
    </contour>
    <contour>
      <point x="322" y="28" type="line"/>
      <point x="115" y="369" type="line"/>
      <point x="68" y="350" type="line"/>
      <point x="278" y="0" type="line"/>
    </contour>
  </outline>
</glyph>
<glyph name="G.ss01" format="1">
  <advance width="600"/>
  <outline>
    <contour>
      <point x="469" y="-11"/>
      <point x="531" y="115"/>
      <point x="531" y="321" type="curve"/>
      <point x="483" y="329" type="line"/>
      <point x="483" y="100"/>
      <point x="415" y="37"/>
      <point x="317" y="37" type="curve" smooth="yes"/>
      <point x="204" y="37"/>
      <point x="130" y="125"/>
      <point x="130" y="348" type="curve" smooth="yes"/>
      <point x="130" y="571"/>
      <point x="202" y="658"/>
      <point x="319" y="658" type="curve" smooth="yes"/>
      <point x="392" y="658"/>
      <point x="433" y="632"/>
      <point x="462" y="577" type="curve"/>
      <point x="510" y="604" type="line"/>
      <point x="472" y="669"/>
      <point x="414" y="706"/>
      <point x="319" y="706" type="curve" smooth="yes"/>
      <point x="193" y="706"/>
      <point x="77" y="635"/>
      <point x="77" y="348" type="curve" smooth="yes"/>
      <point x="77" y="60"/>
      <point x="191" y="-11"/>
      <point x="317" y="-11" type="curve" smooth="yes"/>
    </contour>
    <contour>
      <point x="531" y="321" type="line"/>
      <point x="531" y="367" type="line"/>
      <point x="325" y="367" type="line"/>
      <point x="325" y="321" type="line"/>
    </contour>
  </outline>
</glyph>
<glyph name="Q.ss01" format="1">
  <advance width="600"/>
  <outline>
    <contour>
      <point x="421" y="-11"/>
      <point x="529" y="53"/>
      <point x="529" y="348" type="curve" smooth="yes"/>
      <point x="529" y="642"/>
      <point x="421" y="706"/>
      <point x="296" y="706" type="curve" smooth="yes"/>
      <point x="170" y="706"/>
      <point x="62" y="642"/>
      <point x="62" y="348" type="curve" smooth="yes"/>
      <point x="62" y="53"/>
      <point x="170" y="-11"/>
      <point x="296" y="-11" type="curve" smooth="yes"/>
    </contour>
    <contour>
      <point x="558" y="-60" type="line"/>
      <point x="548" y="1"/>
      <point x="452" y="64"/>
      <point x="347" y="40" type="curve"/>
      <point x="357" y="-5" type="line"/>
      <point x="430" y="16"/>
      <point x="507" y="-32"/>
      <point x="516" y="-97" type="curve"/>
    </contour>
    <contour>
      <point x="196" y="37"/>
      <point x="118" y="92"/>
      <point x="118" y="348" type="curve" smooth="yes"/>
      <point x="118" y="603"/>
      <point x="196" y="658"/>
      <point x="296" y="658" type="curve" smooth="yes"/>
      <point x="395" y="658"/>
      <point x="473" y="603"/>
      <point x="473" y="348" type="curve" smooth="yes"/>
      <point x="473" y="92"/>
      <point x="395" y="37"/>
      <point x="296" y="37" type="curve" smooth="yes"/>
    </contour>
  </outline>
</glyph>
<glyph name="X.ss01" format="1">
  <advance width="600"/>
  <outline>
    <contour>
      <point x="281" y="371" type="line"/>
      <point x="77" y="0" type="line"/>
      <point x="137" y="0" type="line"/>
      <point x="316" y="332" type="line"/>
    </contour>
    <contour>
      <point x="316" y="332" type="line"/>
      <point x="521" y="700" type="line"/>
      <point x="462" y="700" type="line"/>
      <point x="281" y="371" type="line"/>
    </contour>
    <contour>
      <point x="462" y="0" type="line"/>
      <point x="521" y="0" type="line"/>
      <point x="317" y="371" type="line"/>
      <point x="282" y="332" type="line"/>
    </contour>
    <contour>
      <point x="137" y="700" type="line"/>
      <point x="77" y="700" type="line"/>
      <point x="282" y="332" type="line"/>
      <point x="317" y="371" type="line"/>
    </contour>
  </outline>
</glyph>
<glyph name="a.ss01" format="1">
  <advance width="600"/>
  <outline>
    <contour>
      <point x="457" y="381" type="line"/>
      <point x="457" y="472"/>
      <point x="375" y="512"/>
      <point x="286" y="512" type="curve"/>
      <point x="197" y="512"/>
      <point x="147" y="491"/>
      <point x="113" y="457" type="curve"/>
      <point x="137" y="432" type="line"/>
      <point x="162" y="460"/>
      <point x="214" y="479"/>
      <point x="279" y="479" type="curve"/>
      <point x="357" y="479"/>
      <point x="424" y="452"/>
      <point x="424" y="373" type="curve"/>
    </contour>
    <contour>
      <point x="393" y="-11"/>
      <point x="449" y="76"/>
      <point x="449" y="76" type="curve"/>
      <point x="439" y="124" type="line"/>
      <point x="428" y="88"/>
      <point x="364" y="21"/>
      <point x="273" y="21" type="curve"/>
      <point x="181" y="21"/>
      <point x="116" y="48"/>
      <point x="116" y="153" type="curve"/>
      <point x="83" y="153" type="line"/>
      <point x="83" y="41"/>
      <point x="147" y="-11"/>
      <point x="256" y="-11" type="curve"/>
    </contour>
    <contour>
      <point x="116" y="153" type="line"/>
      <point x="116" y="265"/>
      <point x="174" y="284"/>
      <point x="310" y="284" type="curve"/>
      <point x="282" y="316" type="line"/>
      <point x="130" y="316"/>
      <point x="83" y="264"/>
      <point x="83" y="153" type="curve"/>
    </contour>
    <contour>
      <point x="529" y="-11"/>
      <point x="540" y="-7"/>
      <point x="544" y="-6" type="curve"/>
      <point x="544" y="26" type="line"/>
      <point x="544" y="26"/>
      <point x="532" y="20"/>
      <point x="509" y="20" type="curve"/>
      <point x="477" y="20"/>
      <point x="457" y="44"/>
      <point x="457" y="122" type="curve"/>
      <point x="424" y="112" type="line"/>
      <point x="424" y="46"/>
      <point x="446" y="-11"/>
      <point x="507" y="-11" type="curve"/>
    </contour>
    <contour>
      <point x="448" y="284" type="line"/>
      <point x="448" y="316" type="line"/>
      <point x="282" y="316" type="line"/>
      <point x="310" y="284" type="line"/>
    </contour>
    <contour>
      <point x="457" y="294" type="line"/>
      <point x="424" y="294" type="line"/>
      <point x="424" y="90" type="line"/>
      <point x="457" y="89" type="line"/>
    </contour>
    <contour>
      <point x="457" y="209" type="line"/>
      <point x="457" y="381" type="line"/>
      <point x="424" y="373" type="line"/>
      <point x="424" y="209" type="line"/>
    </contour>
  </outline>
</glyph>
<glyph name="g.ss01" format="1">
  <advance width="600"/>
  <outline>
    <contour>
      <point x="552" y="503" type="line"/>
      <point x="505" y="503"/>
      <point x="441" y="456"/>
      <point x="455" y="362" type="curve"/>
      <point x="499" y="351" type="line"/>
      <point x="495" y="437"/>
      <point x="537" y="453"/>
      <point x="566" y="454" type="curve"/>
    </contour>
    <contour>
      <point x="401" y="149"/>
      <point x="500" y="188"/>
      <point x="500" y="331" type="curve" smooth="yes"/>
      <point x="500" y="473"/>
      <point x="407" y="512"/>
      <point x="301" y="512" type="curve" smooth="yes"/>
      <point x="194" y="512"/>
      <point x="101" y="473"/>
      <point x="101" y="331" type="curve" smooth="yes"/>
      <point x="101" y="188"/>
      <point x="198" y="149"/>
      <point x="301" y="149" type="curve" smooth="yes"/>
    </contour>
    <contour>
      <point x="211" y="197"/>
      <point x="156" y="229"/>
      <point x="156" y="331" type="curve" smooth="yes"/>
      <point x="156" y="432"/>
      <point x="201" y="465"/>
      <point x="301" y="465" type="curve" smooth="yes"/>
      <point x="400" y="465"/>
      <point x="445" y="435"/>
      <point x="445" y="331" type="curve" smooth="yes"/>
      <point x="445" y="229"/>
      <point x="390" y="197"/>
      <point x="301" y="197" type="curve" smooth="yes"/>
    </contour>
    <contour>
      <point x="243" y="-1" type="line"/>
      <point x="253" y="46" type="line"/>
      <point x="220" y="47" type="line" smooth="yes"/>
      <point x="144" y="48"/>
      <point x="179" y="151"/>
      <point x="228" y="178" type="curve"/>
      <point x="193" y="196" type="line"/>
      <point x="168" y="178"/>
      <point x="123" y="143"/>
      <point x="119" y="92" type="curve" smooth="yes"/>
      <point x="114" y="37"/>
      <point x="153" y="-1"/>
      <point x="225" y="-1" type="curve" smooth="yes"/>
    </contour>
    <contour>
      <point x="89" y="-139"/>
      <point x="159" y="-185"/>
      <point x="307" y="-185" type="curve"/>
      <point x="307" y="-139" type="line"/>
      <point x="202" y="-139"/>
      <point x="153" y="-113"/>
      <point x="146" y="-69" type="curve" smooth="yes"/>
      <point x="140" y="-25"/>
      <point x="174" y="11"/>
      <point x="193" y="23" type="curve"/>
      <point x="162" y="42" type="line"/>
      <point x="142" y="31"/>
      <point x="89" y="-4"/>
      <point x="89" y="-65" type="curve" smooth="yes"/>
    </contour>
    <contour>
      <point x="521" y="2"/>
      <point x="481" y="46"/>
      <point x="386" y="46" type="curve"/>
      <point x="365" y="-1" type="line"/>
      <point x="460" y="-1"/>
      <point x="468" y="-31"/>
      <point x="462" y="-64" type="curve" smooth="yes"/>
      <point x="456" y="-99"/>
      <point x="416" y="-139"/>
      <point x="307" y="-139" type="curve"/>
      <point x="307" y="-185" type="line"/>
      <point x="457" y="-185"/>
      <point x="512" y="-119"/>
      <point x="516" y="-57" type="curve" smooth="yes"/>
    </contour>
    <contour>
      <point x="386" y="46" type="line"/>
      <point x="386" y="46"/>
      <point x="385" y="46"/>
      <point x="385" y="46" type="curve" smooth="yes"/>
      <point x="253" y="46" type="line"/>
      <point x="243" y="-1" type="line"/>
      <point x="365" y="-1" type="line"/>
    </contour>
  </outline>
</glyph>
<glyph name="i.ss01" format="1">
  <advance width="600"/>
  <outline>
    <contour>
      <point x="437" y="-11"/>
      <point x="480" y="-1"/>
      <point x="486" y="0" type="curve"/>
      <point x="486" y="46" type="line"/>
      <point x="480" y="44"/>
      <point x="431" y="34"/>
      <point x="391" y="34" type="curve"/>
      <point x="350" y="34"/>
      <point x="316" y="45"/>
      <point x="316" y="129" type="curve"/>
      <point x="265" y="118" type="line"/>
      <point x="265" y="15"/>
      <point x="315" y="-11"/>
      <point x="379" y="-11" type="curve"/>
    </contour>
    <contour>
      <point x="316" y="129" type="line"/>
      <point x="316" y="500" type="line"/>
      <point x="265" y="500" type="line"/>
      <point x="265" y="118" type="line"/>
    </contour>
    <contour>
      <point x="270" y="453" type="line"/>
      <point x="270" y="500" type="line"/>
      <point x="113" y="500" type="line"/>
      <point x="113" y="453" type="line"/>
    </contour>
    <contour>
      <point x="317" y="646"/>
      <point x="340" y="669"/>
      <point x="340" y="698" type="curve" smooth="yes"/>
      <point x="340" y="727"/>
      <point x="317" y="750"/>
      <point x="288" y="750" type="curve" smooth="yes"/>
      <point x="258" y="750"/>
      <point x="235" y="727"/>
      <point x="235" y="698" type="curve" smooth="yes"/>
      <point x="235" y="669"/>
      <point x="258" y="646"/>
      <point x="288" y="646" type="curve" smooth="yes"/>
    </contour>
  </outline>
</glyph>
<glyph name="l.ss01" format="1">
  <advance width="600"/>
  <outline>
    <contour>
      <point x="291" y="42" type="line"/>
      <point x="291" y="800" type="line"/>
      <point x="240" y="800" type="line"/>
      <point x="240" y="31" type="line"/>
    </contour>
    <contour>
      <point x="460" y="0" type="line"/>
      <point x="460" y="47" type="line"/>
      <point x="240" y="47" type="line"/>
      <point x="240" y="0" type="line"/>
    </contour>
    <contour>
      <point x="245" y="753" type="line"/>
      <point x="245" y="800" type="line"/>
      <point x="91" y="800" type="line"/>
      <point x="91" y="753" type="line"/>
    </contour>
  </outline>
</glyph>
<glyph name="t.ss01" format="1">
  <advance width="600"/>
  <outline>
    <contour>
      <point x="316" y="18" type="line"/>
      <point x="316" y="680" type="line"/>
      <point x="265" y="680" type="line"/>
      <point x="265" y="11" type="line"/>
    </contour>
    <contour>
      <point x="460" y="0" type="line"/>
      <point x="460" y="47" type="line"/>
      <point x="277" y="47" type="line"/>
      <point x="277" y="0" type="line"/>
    </contour>
    <contour>
      <point x="503" y="453" type="line"/>
      <point x="503" y="500" type="line"/>
      <point x="128" y="500" type="line"/>
      <point x="128" y="453" type="line"/>
    </contour>
  </outline>
</glyph>
<glyph name="three.ss01" format="1">
  <advance width="600"/>
  <outline>
    <contour>
      <point x="445" y="-11"/>
      <point x="529" y="75"/>
      <point x="529" y="201" type="curve" smooth="yes"/>
      <point x="529" y="337"/>
      <point x="409" y="418"/>
      <point x="296" y="375" type="curve"/>
      <point x="267" y="330" type="line"/>
      <point x="373" y="375"/>
      <point x="473" y="321"/>
      <point x="473" y="201" type="curve" smooth="yes"/>
      <point x="473" y="102"/>
      <point x="410" y="37"/>
      <point x="305" y="37" type="curve" smooth="yes"/>
      <point x="229" y="37"/>
      <point x="165" y="68"/>
      <point x="138" y="117" type="curve"/>
      <point x="87" y="89" type="line"/>
      <point x="128" y="26"/>
      <point x="209" y="-11"/>
      <point x="308" y="-11" type="curve" smooth="yes"/>
    </contour>
    <contour>
      <point x="448" y="653" type="line"/>
      <point x="228" y="366" type="line"/>
      <point x="267" y="330" type="line"/>
      <point x="511" y="653" type="line"/>
    </contour>
    <contour>
      <point x="511" y="700" type="line"/>
      <point x="124" y="700" type="line"/>
      <point x="124" y="653" type="line"/>
      <point x="511" y="653" type="line"/>
    </contour>
  </outline>
</glyph>
<glyph name="x.ss01" format="1">
  <advance width="600"/>
  <outline>
    <contour>
      <point x="280" y="265" type="line"/>
      <point x="88" y="0" type="line"/>
      <point x="152" y="0" type="line"/>
      <point x="317" y="237" type="line"/>
    </contour>
    <contour>
      <point x="317" y="237" type="line"/>
      <point x="515" y="500" type="line"/>
      <point x="452" y="500" type="line"/>
      <point x="280" y="265" type="line"/>
    </contour>
    <contour>
      <point x="447" y="0" type="line"/>
      <point x="510" y="0" type="line"/>
      <point x="318" y="265" type="line"/>
      <point x="281" y="237" type="line"/>
    </contour>
    <contour>
      <point x="152" y="500" type="line"/>
      <point x="88" y="500" type="line"/>
      <point x="281" y="237" type="line"/>
      <point x="318" y="265" type="line"/>
    </contour>
  </outline>
</glyph>
